<?xml version="1.0" encoding="utf-8"?>
<!-- Generator: Adobe Illustrator 25.4.1, SVG Export Plug-In . SVG Version: 6.00 Build 0)  -->
<svg version="1.1" id="Capa_1" xmlns="http://www.w3.org/2000/svg" xmlns:xlink="http://www.w3.org/1999/xlink" x="0px" y="0px"
	 viewBox="0 0 4285.98 2783.62" style="enable-background:new 0 0 4285.98 2783.62;" xml:space="preserve">
<style type="text/css">
	.st0{fill:none;}
	.st1{fill:#56070C;}
	.st2{fill:#8F3D38;}
	.st3{opacity:0.2;fill:url(#Motivo_nuevo);}
</style>
<pattern  x="1580.49" y="173.81" width="1291.5" height="2579.61" patternUnits="userSpaceOnUse" id="Motivo_nuevo" viewBox="111.91 -2873.23 1291.5 2579.61" style="overflow:visible;">
	<g>
		<rect x="111.91" y="-2873.23" class="st0" width="1291.5" height="2579.61"/>
		<g>
			<path class="st1" d="M983.16-274.22c-12.58-7.91-26.96-13.39-42.66-15.47c-58.48-7.77-112.18,33.33-119.95,91.81
				c-7.77,58.48,33.33,112.18,91.81,119.95c10.63,1.41,21.09,1.17,31.15-0.46c5.42,39.46,36.48,72.08,77.88,77.58
				c49.69,6.6,95.32-28.33,101.93-78.01c3.83-28.85-6.4-56.28-25.33-75.55c19.38-13.01,33.35-33.88,36.67-58.84
				c6.13-46.15-26.31-88.54-72.46-94.67C1030.61-312.08,1000.8-298.19,983.16-274.22z"/>
		</g>
		<g>
			<path class="st1" d="M1036-2037.88c-10.25,4.42-19.77,10.99-27.74,19.82c-29.71,32.89-27.13,83.65,5.77,113.35
				c32.89,29.71,83.65,27.13,113.35-5.77c5.4-5.98,9.7-12.56,12.98-19.48c26.74,13.44,60.16,8.1,81.19-15.18
				c25.24-27.95,23.05-71.07-4.9-96.32c-16.23-14.66-37.57-20-57.56-16.48c0.2-17.54-6.78-35.08-20.82-47.76
				c-25.96-23.45-66.01-21.41-89.46,4.55C1032.76-2083.38,1028.67-2059.01,1036-2037.88z"/>
			<g>
				<path class="st2" d="M1140.36-1929.96c0.67,0.33,1.35,0.6,2.03,0.92c6.67-14.06,9.38-29.84,7.4-45.64
					c-0.04-0.27-0.17-0.52-0.36-0.69c-0.23-0.21-0.55-0.32-0.89-0.28c-0.61,0.08-1.06,0.64-0.97,1.25
					C1150.77-1951.46,1140.19-1929.6,1140.36-1929.96z"/>
				<path class="st2" d="M1062.55-2045.6c-0.06-0.62-0.58-1.08-1.2-1.03c-9.07,0.72-17.8,2.99-25.97,6.49
					c0.22,0.72,0.35,1.46,0.6,2.18c8.03-3.48,16.62-5.73,25.55-6.44C1062.14-2044.45,1062.6-2044.99,1062.55-2045.6z"/>
			</g>
			<path class="st2" d="M1158.99-2060.43c-15.09,2.58-29.47,9.98-40.51,22.2c-6.89,7.63-11.93,16.43-14.98,26.16
				c-0.18,0.59,0.15,1.22,0.73,1.41c0.59,0.19,1.22-0.14,1.41-0.73c2.96-9.42,7.84-17.94,14.51-25.32
				c10.61-11.75,24.42-18.9,38.93-21.44C1159.08-2058.91,1159.01-2059.67,1158.99-2060.43z"/>
			<path class="st2" d="M1127.34-2093.6c11.12,10.04,16.81,24.94,15.25,39.84c-0.07,0.62-0.62,1.07-1.24,1
				c-0.61-0.07-1.06-0.62-1-1.23c1.5-14.2-3.93-28.38-14.52-37.94c-11.5-10.39-27.29-14.07-42.23-9.86
				c-0.6,0.18-1.22-0.18-1.39-0.77c-0.17-0.6,0.18-1.22,0.78-1.39C1098.68-2108.38,1115.25-2104.51,1127.34-2093.6z"/>
			<path class="st2" d="M1199.55-1939.58c0.09,0.08,0.16,0.17,0.22,0.28c0.28,0.51,0.08,1.14-0.42,1.42
				c-17.05,9.14-37.58,9.51-54.93,0.97c-0.5-0.26-0.74-0.88-0.48-1.4c0.26-0.52,0.89-0.73,1.41-0.48c16.74,8.23,36.55,7.88,53-0.94
				C1198.75-1939.94,1199.23-1939.87,1199.55-1939.58z"/>
			<path class="st1" d="M983.16-2853.83c-12.58-7.91-26.96-13.39-42.66-15.47c-58.48-7.77-112.18,33.33-119.95,91.81
				c-7.77,58.48,33.33,112.18,91.81,119.95c10.63,1.41,21.09,1.17,31.15-0.46c5.42,39.46,36.48,72.08,77.88,77.58
				c49.69,6.6,95.32-28.32,101.93-78.01c3.83-28.85-6.4-56.28-25.33-75.55c19.38-13.01,33.35-33.88,36.67-58.84
				c6.13-46.15-26.31-88.54-72.46-94.67C1030.61-2891.68,1000.8-2877.8,983.16-2853.83z"/>
			<g>
				<path class="st2" d="M943.51-2657.99c0.13,0.98,0.36,1.94,0.52,2.91c20.45-3.29,39.8-12.22,55.64-26.3
					c0.27-0.24,0.44-0.57,0.48-0.91c0.06-0.41-0.07-0.85-0.36-1.18c-0.55-0.61-1.5-0.68-2.11-0.12
					C974.93-2662.78,942.98-2657.91,943.51-2657.99z"/>
				<path class="st2" d="M1011.65-2830.52c0.63-0.53,0.75-1.46,0.22-2.09c-7.63-9.41-16.7-17.27-26.71-23.59
					c-0.63,0.79-1.34,1.49-1.94,2.3c9.88,6.18,18.82,13.9,26.33,23.16C1010.07-2830.1,1011.01-2830.01,1011.65-2830.52z"/>
			</g>
			<path class="st2" d="M1100.63-2735.95c-14.21-14.61-33.17-24.79-54.89-27.68c-13.56-1.8-27.01-0.69-39.98,3.3
				c-0.78,0.24-1.23,1.09-0.99,1.87c0.24,0.79,1.08,1.23,1.87,0.99c12.56-3.86,25.58-4.93,38.71-3.18
				c20.89,2.78,39.14,12.53,52.86,26.52C1099.04-2734.71,1099.82-2735.36,1100.63-2735.95z"/>
			<path class="st2" d="M1113.14-2795.68c-2.63,19.76-14.67,37.24-32.19,46.76c-0.73,0.39-1.64,0.13-2.04-0.6
				c-0.38-0.73-0.12-1.64,0.6-2.03c16.7-9.07,28.15-25.72,30.65-44.53c2.72-20.45-5.15-40.54-21.03-53.74
				c-0.65-0.53-0.72-1.47-0.2-2.11c0.53-0.63,1.48-0.72,2.11-0.19C1107.73-2838.25,1115.99-2817.15,1113.14-2795.68z"/>
			<path class="st2" d="M998.7-2600.33c-0.02,0.15-0.07,0.31-0.14,0.46c-0.35,0.69-1.19,0.95-1.87,0.6
				c-22.89-11.8-38.77-34.04-42.49-59.5c-0.1-0.74,0.41-1.47,1.18-1.58c0.77-0.11,1.47,0.42,1.59,1.18
				c3.59,24.56,18.92,46.03,41,57.42C998.5-2601.48,998.77-2600.9,998.7-2600.33z"/>
			<path class="st1" d="M254.91-1631.78c-3.74,18.11-1.47,37.57,7.82,55.21c21.27,40.39,71.27,55.89,111.66,34.62
				c13.42-7.07,24.02-17.34,31.51-29.35c23.12,13.5,52.42,15.2,77.85,1.81c39.19-20.64,54.23-69.15,33.59-108.35
				c-6.32-12-15.28-21.71-25.76-28.85c6.84-21.1,5.53-44.81-5.62-65.99c-21.93-41.64-73.47-57.62-115.11-35.69
				c-9.02,4.75-16.75,10.95-23.23,18.07c-21.24-19.58-53.26-24.79-80.28-10.56c-34.31,18.07-47.47,60.53-29.4,94.84
				c0.99,1.88,2.08,3.66,3.21,5.41c-3.54,0.62-7.06,1.62-10.41,3.38c-17.22,9.07-23.83,30.39-14.76,47.61
				C223.57-1635.18,239.74-1628.35,254.91-1631.78z"/>
			<g>
				<path class="st2" d="M251.77-1631.34c0.99-0.13,1.98-0.2,2.96-0.42c4.84-23.46,19.72-44.66,42.52-56.66
					c0.7-0.37,0.97-1.23,0.6-1.93c-0.37-0.7-1.23-0.96-1.93-0.6C272.02-1678.36,256.56-1655.99,251.77-1631.34z"/>
				<path class="st2" d="M406.06-1571.22c0.83,0.48,1.71,0.84,2.56,1.29c15.47-25,17.78-57.28,3.12-85.12
					c-0.37-0.7-1.23-0.96-1.93-0.6c-0.7,0.37-0.97,1.23-0.6,1.93C423.41-1626.72,421.13-1595.41,406.06-1571.22z"/>
			</g>
			<path class="st2" d="M362.33-1771.52c9.2,17.47,10.63,38.15,3.92,56.73c-0.28,0.76,0.12,1.6,0.88,1.88
				c0.77,0.28,1.6-0.12,1.87-0.88c6.99-19.36,5.5-40.89-4.08-59.09c-3.99-7.57-9.17-14.09-15.13-19.59c-0.68,0.7-1.4,1.36-2.06,2.08
				C353.48-1785.1,358.48-1778.82,362.33-1771.52z"/>
			<path class="st2" d="M491.61-1706.8c0.31-0.96,0.52-1.96,0.8-2.93c-10.49-6.97-22.51-11.65-35.34-13.32
				c-0.31-0.04-0.61,0.02-0.87,0.15c-0.4,0.21-0.7,0.61-0.77,1.1c-0.1,0.8,0.46,1.54,1.26,1.64
				C469.39-1718.5,481.31-1713.83,491.61-1706.8z"/>
			<path class="st2" d="M374.31-1801.8c18.39-9.68,39.44-11.63,59.29-5.48c0.77,0.24,1.2,1.06,0.97,1.83
				c-0.24,0.77-1.06,1.2-1.83,0.97c-19.09-5.92-39.36-4.05-57.05,5.27c-7.42,3.91-14.06,8.96-19.74,15.02
				c-0.57,0.6-1.48,0.62-2.07,0.07c-0.59-0.55-0.62-1.48-0.06-2.07C359.7-1792.49,366.6-1797.74,374.31-1801.8z"/>
			<path class="st2" d="M411.67-1580.87c0.41-0.22,0.92-0.23,1.36,0.01c20.28,11.32,44.65,11.62,65.17,0.82
				c0.7-0.37,1.56-0.1,1.93,0.6c0.37,0.7,0.1,1.56-0.6,1.93c-21.38,11.26-46.76,10.95-67.89-0.84c-0.7-0.39-0.94-1.26-0.55-1.95
				C411.22-1580.56,411.43-1580.75,411.67-1580.87z"/>
			<path class="st1" d="M378.22-2592.06c2.43-4.03,4.08-8.61,4.65-13.59c2.12-18.56-11.2-35.32-29.75-37.44
				c-18.56-2.12-35.32,11.2-37.44,29.75c-0.39,3.37-0.25,6.68,0.33,9.86c-12.46,1.94-22.61,11.96-24.11,25.1
				c-1.8,15.77,9.52,30.01,25.28,31.81c9.16,1.05,17.78-2.35,23.77-8.45c4.23,6.06,10.92,10.36,18.84,11.27
				c14.64,1.68,27.87-8.84,29.55-23.48C390.48-2577.26,385.91-2586.61,378.22-2592.06z"/>
			<g>
				<path class="st2" d="M316-2603.48c-0.31,0.05-0.61,0.12-0.92,0.18c1.16,6.46,4.1,12.53,8.65,17.46
					c0.08,0.08,0.18,0.14,0.29,0.15c0.13,0.01,0.27-0.03,0.37-0.12c0.19-0.18,0.21-0.48,0.03-0.67
					C317.7-2593.56,315.97-2603.65,316-2603.48z"/>
				<path class="st2" d="M371.01-2582.91c0.17,0.2,0.47,0.23,0.66,0.06c2.93-2.47,5.37-5.39,7.31-8.59
					c-0.25-0.19-0.48-0.42-0.74-0.6c-1.9,3.16-4.29,6.04-7.18,8.47C370.87-2583.4,370.84-2583.1,371.01-2582.91z"/>
			</g>
			<path class="st2" d="M341.59-2554.19c4.54-4.58,7.66-10.64,8.45-17.54c0.49-4.3,0.06-8.55-1.27-12.64
				c-0.08-0.25-0.35-0.38-0.6-0.3c-0.25,0.08-0.38,0.35-0.3,0.6c1.29,3.95,1.71,8.07,1.23,12.24c-0.76,6.63-3.74,12.46-8.09,16.89
				C341.18-2554.69,341.39-2554.45,341.59-2554.19z"/>
			<path class="st2" d="M360.56-2550.58c-6.27-0.72-11.87-4.43-14.99-9.92c-0.13-0.23-0.05-0.52,0.18-0.65
				c0.23-0.13,0.52-0.05,0.65,0.18c2.97,5.23,8.3,8.76,14.27,9.45c6.49,0.74,12.8-1.86,16.89-6.97c0.16-0.21,0.46-0.24,0.67-0.08
				c0.2,0.16,0.24,0.46,0.07,0.67C374.01-2552.54,367.38-2549.8,360.56-2550.58z"/>
			<path class="st2" d="M298.07-2585.68c-0.05-0.01-0.1-0.02-0.15-0.04c-0.22-0.11-0.31-0.37-0.2-0.59
				c3.6-7.31,10.55-12.47,18.59-13.79c0.24-0.04,0.47,0.12,0.51,0.36c0.04,0.24-0.12,0.47-0.36,0.51
				c-7.75,1.28-14.46,6.25-17.94,13.31C298.43-2585.75,298.25-2585.66,298.07-2585.68z"/>
			<path class="st1" d="M928.86-1592.79c4.67-0.6,9.28-2.15,13.54-4.8c15.86-9.87,20.71-30.72,10.84-46.58
				c-9.87-15.86-30.72-20.71-46.58-10.84c-2.88,1.79-5.39,3.96-7.52,6.38c-9.27-8.55-23.42-10.28-34.65-3.29
				c-13.47,8.39-17.6,26.11-9.21,39.58c4.87,7.82,12.89,12.47,21.4,13.37c-2.12,7.08-1.33,14.99,2.88,21.76
				c7.79,12.51,24.25,16.34,36.76,8.56C924.88-1573.99,929.37-1583.38,928.86-1592.79z"/>
			<g>
				<path class="st2" d="M899.14-1648.63c-0.23-0.21-0.48-0.4-0.71-0.61c-4.34,4.92-7.27,11-8.3,17.63
					c-0.02,0.11,0.01,0.23,0.07,0.32c0.07,0.11,0.19,0.19,0.33,0.22c0.26,0.04,0.5-0.14,0.54-0.39
					C892.42-1641.14,899.25-1648.76,899.14-1648.63z"/>
				<path class="st2" d="M917.21-1592.75c-0.05,0.26,0.11,0.51,0.37,0.56c3.76,0.76,7.56,0.86,11.27,0.39
					c-0.01-0.32,0.03-0.63,0.01-0.95c-3.66,0.48-7.4,0.39-11.1-0.36C917.51-1593.17,917.26-1593.01,917.21-1592.75z"/>
			</g>
			<path class="st2" d="M876.43-1597.96c6.41,0.71,13.1-0.62,18.99-4.28c3.68-2.29,6.74-5.27,9.11-8.85
				c0.14-0.22,0.08-0.51-0.13-0.66c-0.22-0.14-0.51-0.09-0.66,0.13c-2.29,3.47-5.26,6.35-8.82,8.57
				c-5.66,3.53-12.09,4.81-18.26,4.16C876.56-1598.58,876.51-1598.27,876.43-1597.96z"/>
			<path class="st2" d="M885.39-1580.85c-3.33-5.36-3.91-12.05-1.54-17.91c0.1-0.24,0.37-0.36,0.62-0.26
				c0.24,0.1,0.36,0.38,0.26,0.62c-2.26,5.58-1.71,11.95,1.47,17.05c3.45,5.55,9.42,8.87,15.96,8.9c0.26,0,0.47,0.21,0.47,0.48
				c0,0.26-0.22,0.47-0.48,0.47C895.28-1571.53,889.01-1575.02,885.39-1580.85z"/>
			<path class="st2" d="M874.05-1651.62c-0.03-0.04-0.05-0.09-0.06-0.14c-0.05-0.24,0.1-0.47,0.34-0.52
				c7.97-1.72,16.33,0.52,22.36,5.99c0.17,0.16,0.2,0.44,0.03,0.62c-0.17,0.18-0.44,0.19-0.63,0.03
				c-5.82-5.28-13.89-7.44-21.58-5.78C874.33-1651.38,874.14-1651.47,874.05-1651.62z"/>
			<path class="st1" d="M823.85-643.48c-1.51,7.3-0.59,15.15,3.15,22.27c8.58,16.29,28.74,22.54,45.03,13.96
				c5.41-2.85,9.69-6.99,12.71-11.83c9.32,5.44,21.14,6.13,31.4,0.73c15.81-8.33,21.87-27.89,13.55-43.69
				c-2.55-4.84-6.16-8.76-10.39-11.64c2.76-8.51,2.23-18.07-2.27-26.61c-8.84-16.79-29.63-23.24-46.42-14.39
				c-3.64,1.92-6.75,4.41-9.37,7.29c-8.56-7.9-21.48-10-32.37-4.26c-13.84,7.29-19.14,24.41-11.86,38.25
				c0.4,0.76,0.84,1.48,1.29,2.18c-1.43,0.25-2.85,0.65-4.2,1.36c-6.95,3.66-9.61,12.26-5.95,19.2
				C811.21-644.85,817.73-642.09,823.85-643.48z"/>
			<g>
				<path class="st2" d="M822.58-643.3c0.4-0.05,0.8-0.08,1.19-0.17c1.95-9.46,7.95-18.01,17.15-22.85c0.28-0.15,0.39-0.5,0.24-0.78
					c-0.15-0.28-0.5-0.39-0.78-0.24C830.74-662.26,824.51-653.24,822.58-643.3z"/>
				<path class="st2" d="M884.8-619.05c0.33,0.19,0.69,0.34,1.03,0.52c6.24-10.08,7.17-23.1,1.26-34.33
					c-0.15-0.28-0.5-0.39-0.78-0.24c-0.28,0.15-0.39,0.5-0.24,0.78C891.8-641.44,890.88-628.81,884.8-619.05z"/>
			</g>
			<path class="st2" d="M867.16-699.83c3.71,7.05,4.29,15.38,1.58,22.88c-0.11,0.31,0.05,0.65,0.36,0.76
				c0.31,0.11,0.65-0.05,0.76-0.36c2.82-7.81,2.22-16.49-1.65-23.83c-1.61-3.05-3.7-5.68-6.1-7.9c-0.27,0.28-0.56,0.55-0.83,0.84
				C863.59-705.31,865.61-702.78,867.16-699.83z"/>
			<path class="st2" d="M919.3-673.73c0.13-0.39,0.21-0.79,0.32-1.18c-4.23-2.81-9.08-4.7-14.25-5.37
				c-0.12-0.02-0.25,0.01-0.35,0.06c-0.16,0.09-0.28,0.25-0.31,0.44c-0.04,0.32,0.19,0.62,0.51,0.66
				C910.34-678.45,915.15-676.56,919.3-673.73z"/>
			<path class="st2" d="M872-712.04c7.42-3.91,15.91-4.69,23.91-2.21c0.31,0.1,0.49,0.43,0.39,0.74c-0.1,0.31-0.43,0.48-0.74,0.39
				c-7.7-2.39-15.87-1.63-23.01,2.13c-2.99,1.58-5.67,3.61-7.96,6.06c-0.23,0.24-0.6,0.25-0.84,0.03c-0.24-0.22-0.25-0.6-0.03-0.83
				C866.1-708.29,868.89-710.4,872-712.04z"/>
			<path class="st2" d="M817.58-672.43c0.22,0.37,0.43,0.76,0.66,1.12c3.57-0.63,7.3,0.09,10.41,2.16c0.28,0.19,0.66,0.11,0.84-0.17
				c0.19-0.28,0.11-0.65-0.17-0.84C825.82-672.5,821.58-673.27,817.58-672.43z"/>
			<path class="st2" d="M887.06-622.95c0.17-0.09,0.37-0.09,0.55,0c8.18,4.56,18,4.69,26.28,0.33c0.28-0.15,0.63-0.04,0.78,0.24
				c0.15,0.28,0.04,0.63-0.24,0.78c-8.62,4.54-18.86,4.42-27.38-0.34c-0.28-0.16-0.38-0.51-0.22-0.79
				C886.88-622.82,886.97-622.9,887.06-622.95z"/>
			<path class="st2" d="M818.67-694.98c0.14-0.07,0.31-0.09,0.48-0.04c0.32,0.11,0.48,0.45,0.38,0.76
				c-2.12,6.25-1.59,12.9,1.48,18.73c0.57,1.08,1.23,2.13,1.95,3.11c0.2,0.27,0.14,0.65-0.12,0.85c-0.29,0.21-0.65,0.14-0.85-0.12
				c-0.76-1.03-1.45-2.12-2.05-3.26c-3.23-6.13-3.78-13.11-1.55-19.68C818.44-694.79,818.54-694.91,818.67-694.98z"/>
			<path class="st1" d="M490.07-2094.81c5.33,5.22,12.43,8.69,20.44,9.38c18.34,1.58,34.5-12,36.08-30.34
				c0.53-6.09-0.65-11.93-3.09-17.09c9.62-4.9,16.58-14.48,17.58-26.02c1.54-17.8-11.65-33.47-29.44-35.01
				c-5.45-0.47-10.7,0.45-15.4,2.45c-5.67-6.92-14-11.64-23.62-12.47c-18.91-1.63-35.56,12.37-37.19,31.28
				c-0.35,4.09,0.06,8.07,1.07,11.82c-11.27,2.94-20.02,12.67-21.08,24.94c-1.35,15.58,10.19,29.3,25.77,30.64
				c0.85,0.07,1.69,0.09,2.53,0.09c-0.56,1.34-0.99,2.75-1.12,4.27c-0.68,7.82,5.12,14.71,12.94,15.39
				C482.08-2084.92,487.92-2088.92,490.07-2094.81z"/>
			<g>
				<path class="st2" d="M489.53-2093.65c0.17-0.36,0.36-0.72,0.5-1.1c-6.91-6.75-10.86-16.43-9.96-26.78
					c0.03-0.32-0.21-0.6-0.52-0.62c-0.32-0.03-0.6,0.21-0.62,0.53C477.99-2110.77,482.21-2100.65,489.53-2093.65z"/>
				<path class="st2" d="M543.56-2132.9c0.34-0.18,0.66-0.4,0.99-0.59c-5.11-10.7-15.56-18.52-28.2-19.61
					c-0.32-0.03-0.6,0.21-0.62,0.53c-0.03,0.32,0.21,0.6,0.52,0.62C528.5-2150.89,538.63-2143.29,543.56-2132.9z"/>
			</g>
			<path class="st2" d="M466.06-2161.72c7.93,0.69,15.26,4.71,20.1,11.04c0.2,0.26,0.57,0.31,0.83,0.11
				c0.26-0.2,0.31-0.57,0.11-0.83c-5.04-6.59-12.68-10.78-20.94-11.49c-3.44-0.3-6.78,0.04-9.95,0.86c0.09,0.38,0.16,0.77,0.26,1.15
				C459.52-2161.67,462.74-2162,466.06-2161.72z"/>
			<path class="st2" d="M516.19-2191.48c-0.26-0.32-0.55-0.6-0.82-0.91c-4.65,2.04-8.86,5.1-12.22,9.09
				c-0.08,0.1-0.13,0.21-0.14,0.33c-0.02,0.18,0.05,0.37,0.21,0.5c0.25,0.21,0.62,0.18,0.83-0.07
				C507.38-2186.49,511.56-2189.51,516.19-2191.48z"/>
			<path class="st2" d="M458.4-2172.38c0.72-8.35,4.65-15.92,11.06-21.31c0.25-0.21,0.62-0.18,0.83,0.07
				c0.21,0.25,0.18,0.62-0.07,0.83c-6.17,5.19-9.95,12.47-10.64,20.51c-0.29,3.37-0.02,6.73,0.79,9.97
				c0.08,0.32-0.11,0.64-0.43,0.72c-0.31,0.08-0.64-0.11-0.72-0.43C458.37-2165.39,458.09-2168.88,458.4-2172.38z"/>
			<path class="st2" d="M462.32-2105.19c0.43,0.02,0.87,0.05,1.3,0.05c1.4-3.34,4.02-6.09,7.44-7.59c0.31-0.14,0.45-0.49,0.31-0.8
				c-0.13-0.31-0.49-0.45-0.79-0.31C466.72-2112.16,463.78-2109.01,462.32-2105.19z"/>
			<path class="st2" d="M541.5-2136.91c0.02-0.19,0.12-0.36,0.3-0.46c8.26-4.42,13.67-12.62,14.48-21.93
				c0.03-0.32,0.31-0.55,0.62-0.53c0.32,0.03,0.55,0.31,0.52,0.62c-0.84,9.71-6.47,18.25-15.08,22.85
				c-0.28,0.15-0.63,0.04-0.78-0.24C541.51-2136.69,541.49-2136.8,541.5-2136.91z"/>
			<path class="st2" d="M443.94-2118.29c0.01-0.16,0.09-0.31,0.23-0.42c0.26-0.21,0.64-0.17,0.85,0.09
				c4.11,5.16,9.99,8.31,16.56,8.88c1.22,0.11,2.46,0.12,3.67,0.04c0.33-0.02,0.62,0.23,0.64,0.56c0.02,0.36-0.23,0.62-0.56,0.64
				c-1.28,0.08-2.57,0.07-3.85-0.04c-6.9-0.6-13.08-3.91-17.4-9.32C443.97-2117.99,443.93-2118.14,443.94-2118.29z"/>
			<path class="st1" d="M896.95-2275.96c-1.51,7.3-0.59,15.15,3.15,22.27c8.58,16.29,28.74,22.54,45.03,13.96
				c5.41-2.85,9.69-6.99,12.71-11.83c9.32,5.44,21.14,6.13,31.4,0.73c15.81-8.33,21.87-27.89,13.55-43.69
				c-2.55-4.84-6.16-8.76-10.39-11.64c2.76-8.51,2.23-18.07-2.27-26.61c-8.84-16.79-29.63-23.24-46.42-14.39
				c-3.64,1.92-6.75,4.41-9.37,7.29c-8.56-7.9-21.48-10-32.38-4.26c-13.84,7.29-19.14,24.41-11.86,38.25
				c0.4,0.76,0.84,1.48,1.29,2.18c-1.43,0.25-2.85,0.65-4.2,1.36c-6.95,3.66-9.61,12.26-5.95,19.2
				C884.31-2277.33,890.83-2274.57,896.95-2275.96z"/>
			<g>
				<path class="st2" d="M895.68-2275.78c0.4-0.05,0.8-0.08,1.19-0.17c1.95-9.46,7.95-18.01,17.15-22.85
					c0.28-0.15,0.39-0.5,0.24-0.78c-0.15-0.28-0.5-0.39-0.78-0.24C903.85-2294.74,897.61-2285.72,895.68-2275.78z"/>
				<path class="st2" d="M957.9-2251.53c0.33,0.19,0.69,0.34,1.03,0.52c6.24-10.08,7.17-23.1,1.26-34.33
					c-0.15-0.28-0.5-0.39-0.78-0.24c-0.28,0.15-0.39,0.5-0.24,0.78C964.9-2273.92,963.98-2261.29,957.9-2251.53z"/>
			</g>
			<path class="st2" d="M940.27-2332.31c3.71,7.05,4.29,15.38,1.58,22.88c-0.11,0.31,0.05,0.65,0.36,0.76
				c0.31,0.11,0.65-0.05,0.76-0.36c2.82-7.81,2.22-16.49-1.65-23.83c-1.61-3.05-3.7-5.68-6.1-7.9c-0.27,0.28-0.56,0.55-0.83,0.84
				C936.7-2337.79,938.72-2335.25,940.27-2332.31z"/>
			<path class="st2" d="M992.4-2306.21c0.13-0.39,0.21-0.79,0.32-1.18c-4.23-2.81-9.08-4.7-14.25-5.37
				c-0.13-0.02-0.25,0.01-0.35,0.06c-0.16,0.09-0.28,0.25-0.31,0.44c-0.04,0.32,0.19,0.62,0.51,0.66
				C983.44-2310.93,988.25-2309.04,992.4-2306.21z"/>
			<path class="st2" d="M945.1-2344.52c7.42-3.91,15.91-4.69,23.91-2.21c0.31,0.1,0.49,0.43,0.39,0.74
				c-0.1,0.31-0.43,0.48-0.74,0.39c-7.7-2.39-15.87-1.63-23.01,2.13c-2.99,1.58-5.67,3.61-7.96,6.06c-0.23,0.24-0.6,0.25-0.84,0.03
				c-0.24-0.22-0.25-0.6-0.03-0.83C939.21-2340.76,941.99-2342.88,945.1-2344.52z"/>
			<path class="st2" d="M890.68-2304.91c0.22,0.37,0.43,0.76,0.66,1.12c3.57-0.63,7.3,0.09,10.41,2.16
				c0.28,0.19,0.66,0.11,0.84-0.17c0.19-0.28,0.11-0.65-0.17-0.84C898.92-2304.98,894.69-2305.74,890.68-2304.91z"/>
			<path class="st2" d="M960.16-2255.42c0.17-0.09,0.37-0.09,0.55,0.01c8.18,4.56,18,4.69,26.28,0.33c0.28-0.15,0.63-0.04,0.78,0.24
				c0.15,0.28,0.04,0.63-0.24,0.78c-8.62,4.54-18.86,4.42-27.38-0.34c-0.28-0.16-0.38-0.51-0.22-0.79
				C959.98-2255.3,960.07-2255.37,960.16-2255.42z"/>
			<path class="st2" d="M891.78-2327.46c0.14-0.07,0.31-0.09,0.48-0.04c0.32,0.11,0.48,0.45,0.38,0.76
				c-2.12,6.25-1.59,12.9,1.48,18.73c0.57,1.08,1.23,2.13,1.95,3.1c0.2,0.27,0.14,0.65-0.12,0.85c-0.29,0.21-0.65,0.14-0.85-0.12
				c-0.76-1.03-1.45-2.12-2.05-3.26c-3.23-6.13-3.78-13.11-1.55-19.68C891.54-2327.27,891.64-2327.39,891.78-2327.46z"/>
			<path class="st1" d="M249.22-900.06c2.43-4.03,4.08-8.61,4.65-13.59c2.12-18.56-11.2-35.32-29.75-37.44
				c-18.56-2.12-35.32,11.2-37.44,29.75c-0.39,3.37-0.25,6.68,0.33,9.86c-12.46,1.94-22.61,11.96-24.11,25.1
				c-1.8,15.77,9.52,30.01,25.28,31.81c9.16,1.05,17.78-2.35,23.77-8.45c4.23,6.06,10.92,10.36,18.84,11.27
				c14.64,1.68,27.87-8.84,29.55-23.48C261.48-885.26,256.91-894.61,249.22-900.06z"/>
			<g>
				<path class="st2" d="M187-911.48c-0.31,0.05-0.61,0.12-0.92,0.18c1.16,6.46,4.1,12.53,8.65,17.46c0.08,0.08,0.18,0.14,0.29,0.15
					c0.13,0.01,0.27-0.03,0.37-0.12c0.19-0.18,0.21-0.48,0.03-0.67C188.7-901.56,186.97-911.65,187-911.48z"/>
				<path class="st2" d="M242.01-890.91c0.17,0.2,0.47,0.23,0.66,0.06c2.93-2.47,5.37-5.39,7.31-8.59c-0.25-0.19-0.48-0.42-0.74-0.6
					c-1.9,3.16-4.29,6.04-7.18,8.47C241.87-891.4,241.84-891.1,242.01-890.91z"/>
			</g>
			<path class="st2" d="M212.59-862.19c4.54-4.58,7.66-10.64,8.45-17.54c0.49-4.3,0.06-8.55-1.27-12.64
				c-0.08-0.25-0.35-0.38-0.6-0.3c-0.25,0.08-0.38,0.35-0.3,0.6c1.29,3.95,1.71,8.07,1.23,12.23c-0.76,6.63-3.74,12.46-8.09,16.89
				C212.18-862.69,212.39-862.45,212.59-862.19z"/>
			<path class="st2" d="M231.56-858.58c-6.27-0.72-11.87-4.43-14.99-9.92c-0.13-0.23-0.05-0.52,0.18-0.65
				c0.23-0.13,0.52-0.05,0.65,0.18c2.97,5.23,8.3,8.76,14.27,9.45c6.49,0.74,12.8-1.86,16.89-6.97c0.16-0.21,0.46-0.24,0.67-0.08
				c0.2,0.16,0.24,0.46,0.07,0.67C245.01-860.54,238.38-857.8,231.56-858.58z"/>
			<path class="st2" d="M169.07-893.68c-0.05-0.01-0.1-0.02-0.15-0.04c-0.22-0.11-0.31-0.37-0.2-0.59
				c3.6-7.31,10.55-12.47,18.59-13.79c0.24-0.04,0.47,0.12,0.51,0.36c0.04,0.24-0.12,0.47-0.36,0.51
				c-7.75,1.28-14.46,6.25-17.94,13.31C169.43-893.75,169.25-893.66,169.07-893.68z"/>
			<path class="st1" d="M469.86-391.79c4.67-0.6,9.28-2.15,13.54-4.8c15.86-9.87,20.71-30.72,10.84-46.58
				c-9.87-15.86-30.72-20.71-46.58-10.84c-2.88,1.79-5.39,3.96-7.52,6.38c-9.27-8.55-23.42-10.28-34.65-3.29
				c-13.47,8.39-17.6,26.11-9.21,39.58c4.87,7.82,12.89,12.47,21.4,13.37c-2.12,7.08-1.33,14.99,2.88,21.76
				c7.79,12.51,24.25,16.34,36.76,8.56C465.88-372.99,470.37-382.38,469.86-391.79z"/>
			<g>
				<path class="st2" d="M440.14-447.63c-0.23-0.21-0.48-0.4-0.71-0.61c-4.34,4.92-7.27,11-8.3,17.63
					c-0.02,0.11,0.01,0.23,0.07,0.32c0.07,0.11,0.19,0.19,0.33,0.22c0.26,0.04,0.5-0.14,0.54-0.39
					C433.42-440.14,440.25-447.76,440.14-447.63z"/>
				<path class="st2" d="M458.21-391.75c-0.05,0.26,0.11,0.51,0.37,0.56c3.76,0.76,7.56,0.86,11.27,0.39
					c-0.01-0.32,0.03-0.63,0.01-0.95c-3.66,0.48-7.4,0.39-11.1-0.36C458.51-392.17,458.26-392.01,458.21-391.75z"/>
			</g>
			<path class="st2" d="M417.43-396.96c6.41,0.71,13.1-0.62,18.99-4.28c3.68-2.29,6.74-5.27,9.11-8.85
				c0.14-0.22,0.08-0.51-0.13-0.66c-0.22-0.15-0.51-0.09-0.66,0.13c-2.29,3.47-5.26,6.35-8.82,8.57
				c-5.66,3.53-12.09,4.81-18.26,4.16C417.56-397.58,417.51-397.27,417.43-396.96z"/>
			<path class="st2" d="M426.39-379.85c-3.33-5.36-3.91-12.05-1.54-17.91c0.1-0.24,0.37-0.36,0.62-0.26
				c0.24,0.1,0.36,0.38,0.26,0.62c-2.26,5.58-1.71,11.95,1.47,17.05c3.45,5.55,9.42,8.87,15.96,8.9c0.26,0,0.47,0.21,0.47,0.48
				c0,0.26-0.22,0.47-0.48,0.47C436.28-370.53,430.01-374.02,426.39-379.85z"/>
			<path class="st2" d="M415.05-450.62c-0.03-0.04-0.05-0.09-0.06-0.14c-0.05-0.24,0.1-0.47,0.34-0.52
				c7.97-1.72,16.33,0.52,22.36,5.99c0.17,0.16,0.2,0.44,0.03,0.62c-0.17,0.18-0.44,0.19-0.63,0.03
				c-5.82-5.28-13.89-7.44-21.58-5.78C415.33-450.38,415.14-450.47,415.05-450.62z"/>
			<path class="st1" d="M1308.85-1391.48c-1.51,7.3-0.59,15.15,3.15,22.27c8.58,16.29,28.74,22.54,45.03,13.96
				c5.41-2.85,9.69-6.99,12.71-11.83c9.32,5.44,21.14,6.13,31.4,0.73c15.81-8.33,21.87-27.89,13.55-43.69
				c-2.55-4.84-6.16-8.76-10.39-11.64c2.76-8.51,2.23-18.07-2.27-26.61c-8.84-16.79-29.63-23.24-46.42-14.39
				c-3.64,1.92-6.75,4.41-9.37,7.29c-8.56-7.9-21.48-10-32.38-4.26c-13.84,7.29-19.14,24.41-11.86,38.25
				c0.4,0.76,0.84,1.48,1.29,2.18c-1.43,0.25-2.85,0.65-4.2,1.36c-6.95,3.66-9.61,12.26-5.95,19.2
				C1296.21-1392.85,1302.73-1390.09,1308.85-1391.48z"/>
			<g>
				<path class="st2" d="M1307.58-1391.3c0.4-0.05,0.8-0.08,1.19-0.17c1.95-9.46,7.95-18.01,17.15-22.85
					c0.28-0.15,0.39-0.5,0.24-0.78c-0.15-0.28-0.5-0.39-0.78-0.24C1315.74-1410.26,1309.51-1401.24,1307.58-1391.3z"/>
				<path class="st2" d="M1369.8-1367.05c0.33,0.19,0.69,0.34,1.03,0.52c6.24-10.08,7.17-23.1,1.26-34.33
					c-0.15-0.28-0.5-0.39-0.78-0.24c-0.28,0.15-0.39,0.5-0.24,0.78C1376.8-1389.44,1375.88-1376.81,1369.8-1367.05z"/>
			</g>
			<path class="st2" d="M1352.16-1447.83c3.71,7.05,4.29,15.38,1.58,22.88c-0.11,0.31,0.05,0.65,0.36,0.76
				c0.31,0.11,0.65-0.05,0.76-0.36c2.82-7.81,2.22-16.49-1.65-23.83c-1.61-3.05-3.7-5.68-6.1-7.9c-0.27,0.28-0.56,0.55-0.83,0.84
				C1348.59-1453.31,1350.61-1450.78,1352.16-1447.83z"/>
			<path class="st2" d="M1357-1460.04c7.42-3.91,15.91-4.69,23.91-2.21c0.31,0.1,0.49,0.43,0.39,0.74c-0.1,0.31-0.43,0.48-0.74,0.39
				c-7.7-2.39-15.87-1.63-23.01,2.13c-2.99,1.58-5.67,3.61-7.96,6.06c-0.23,0.24-0.6,0.25-0.84,0.03c-0.24-0.22-0.25-0.6-0.03-0.83
				C1351.1-1456.29,1353.89-1458.4,1357-1460.04z"/>
			<path class="st2" d="M1302.58-1420.43c0.22,0.37,0.43,0.76,0.66,1.12c3.57-0.63,7.3,0.09,10.41,2.16
				c0.28,0.19,0.66,0.11,0.84-0.17c0.19-0.28,0.11-0.65-0.17-0.84C1310.82-1420.5,1306.58-1421.27,1302.58-1420.43z"/>
			<path class="st2" d="M1372.06-1370.95c0.17-0.09,0.37-0.09,0.55,0.01c8.18,4.56,18,4.69,26.28,0.33
				c0.28-0.15,0.63-0.04,0.78,0.24c0.15,0.28,0.04,0.63-0.24,0.78c-8.62,4.54-18.86,4.42-27.38-0.34c-0.28-0.16-0.38-0.51-0.22-0.79
				C1371.88-1370.82,1371.97-1370.9,1372.06-1370.95z"/>
			<path class="st2" d="M1303.67-1442.98c0.14-0.07,0.31-0.09,0.48-0.04c0.32,0.11,0.48,0.45,0.38,0.76
				c-2.12,6.25-1.59,12.9,1.48,18.73c0.57,1.09,1.23,2.13,1.95,3.11c0.2,0.27,0.14,0.65-0.12,0.85c-0.29,0.21-0.65,0.14-0.85-0.12
				c-0.76-1.03-1.45-2.12-2.05-3.26c-3.23-6.13-3.78-13.11-1.55-19.68C1303.44-1442.79,1303.54-1442.91,1303.67-1442.98z"/>
			<path class="st1" d="M1222.07-369.81c5.33,5.22,12.43,8.69,20.44,9.38c18.34,1.58,34.5-12,36.08-30.35
				c0.53-6.09-0.65-11.93-3.09-17.09c9.62-4.9,16.58-14.48,17.58-26.02c1.54-17.8-11.65-33.47-29.44-35.01
				c-5.45-0.47-10.7,0.45-15.4,2.45c-5.67-6.92-14-11.64-23.61-12.47c-18.91-1.63-35.56,12.37-37.19,31.28
				c-0.35,4.09,0.06,8.07,1.07,11.82c-11.27,2.94-20.02,12.67-21.08,24.94c-1.35,15.58,10.19,29.3,25.77,30.64
				c0.85,0.07,1.69,0.09,2.53,0.09c-0.56,1.34-0.99,2.75-1.12,4.27c-0.68,7.82,5.12,14.71,12.94,15.39
				C1214.08-359.92,1219.92-363.92,1222.07-369.81z"/>
			<g>
				<path class="st2" d="M1221.53-368.65c0.17-0.36,0.36-0.72,0.5-1.1c-6.91-6.75-10.86-16.42-9.96-26.78
					c0.03-0.32-0.21-0.6-0.52-0.62c-0.32-0.03-0.6,0.21-0.62,0.53C1209.99-385.77,1214.21-375.65,1221.53-368.65z"/>
				<path class="st2" d="M1275.56-407.9c0.34-0.18,0.66-0.4,0.99-0.59c-5.11-10.7-15.56-18.51-28.2-19.61
					c-0.32-0.03-0.6,0.21-0.62,0.53c-0.03,0.32,0.21,0.6,0.52,0.62C1260.5-425.89,1270.63-418.29,1275.56-407.9z"/>
			</g>
			<path class="st2" d="M1198.06-436.72c7.93,0.69,15.26,4.71,20.1,11.04c0.2,0.26,0.57,0.31,0.83,0.11
				c0.26-0.2,0.31-0.57,0.11-0.83c-5.04-6.59-12.68-10.78-20.94-11.49c-3.44-0.3-6.78,0.04-9.95,0.87c0.09,0.38,0.16,0.77,0.26,1.15
				C1191.52-436.67,1194.74-437,1198.06-436.72z"/>
			<path class="st2" d="M1248.19-466.48c-0.26-0.32-0.55-0.6-0.82-0.91c-4.65,2.04-8.86,5.1-12.22,9.09
				c-0.08,0.1-0.13,0.21-0.14,0.33c-0.02,0.18,0.05,0.37,0.21,0.5c0.25,0.21,0.62,0.18,0.83-0.07
				C1239.38-461.49,1243.56-464.51,1248.19-466.48z"/>
			<path class="st2" d="M1190.4-447.38c0.72-8.35,4.65-15.92,11.06-21.31c0.25-0.21,0.62-0.18,0.83,0.07
				c0.21,0.25,0.18,0.62-0.07,0.83c-6.17,5.19-9.95,12.47-10.64,20.51c-0.29,3.37-0.02,6.73,0.79,9.97
				c0.08,0.32-0.11,0.64-0.43,0.72c-0.31,0.08-0.64-0.11-0.72-0.43C1190.37-440.39,1190.09-443.88,1190.4-447.38z"/>
			<path class="st2" d="M1194.32-380.19c0.43,0.02,0.87,0.05,1.3,0.05c1.4-3.34,4.02-6.09,7.44-7.59c0.31-0.14,0.45-0.49,0.31-0.8
				c-0.13-0.31-0.49-0.45-0.79-0.31C1198.72-387.16,1195.78-384.01,1194.32-380.19z"/>
			<path class="st2" d="M1273.5-411.91c0.02-0.19,0.12-0.36,0.3-0.46c8.26-4.42,13.67-12.62,14.48-21.93
				c0.03-0.32,0.31-0.55,0.62-0.53c0.32,0.03,0.55,0.31,0.52,0.62c-0.84,9.71-6.47,18.25-15.08,22.85
				c-0.28,0.15-0.63,0.04-0.78-0.24C1273.51-411.69,1273.49-411.8,1273.5-411.91z"/>
			<path class="st2" d="M1175.94-393.29c0.01-0.16,0.09-0.31,0.23-0.42c0.26-0.21,0.64-0.17,0.85,0.09
				c4.11,5.16,9.99,8.31,16.56,8.88c1.22,0.11,2.46,0.12,3.67,0.04c0.33-0.02,0.62,0.23,0.64,0.56c0.02,0.36-0.23,0.62-0.56,0.64
				c-1.28,0.08-2.57,0.07-3.85-0.04c-6.9-0.6-13.08-3.91-17.4-9.32C1175.97-392.99,1175.93-393.14,1175.94-393.29z"/>
			<path class="st1" d="M380.95-1260.96c-1.51,7.3-0.59,15.15,3.15,22.27c8.58,16.29,28.74,22.54,45.03,13.96
				c5.41-2.85,9.69-6.99,12.71-11.83c9.32,5.44,21.14,6.13,31.4,0.73c15.81-8.33,21.87-27.89,13.55-43.69
				c-2.55-4.84-6.16-8.76-10.39-11.64c2.76-8.51,2.23-18.07-2.27-26.61c-8.84-16.79-29.63-23.24-46.42-14.39
				c-3.64,1.92-6.75,4.41-9.37,7.29c-8.56-7.9-21.48-10-32.38-4.26c-13.84,7.29-19.14,24.41-11.86,38.25
				c0.4,0.76,0.84,1.48,1.29,2.18c-1.43,0.25-2.85,0.65-4.2,1.36c-6.95,3.66-9.61,12.26-5.95,19.2
				C368.31-1262.33,374.83-1259.57,380.95-1260.96z"/>
			<g>
				<path class="st2" d="M379.68-1260.78c0.4-0.05,0.8-0.08,1.19-0.17c1.95-9.46,7.95-18.01,17.15-22.85
					c0.28-0.15,0.39-0.5,0.24-0.78c-0.15-0.28-0.5-0.39-0.78-0.24C387.85-1279.74,381.61-1270.72,379.68-1260.78z"/>
				<path class="st2" d="M441.9-1236.53c0.33,0.19,0.69,0.34,1.03,0.52c6.24-10.08,7.17-23.1,1.26-34.33
					c-0.15-0.28-0.5-0.39-0.78-0.24c-0.28,0.15-0.39,0.5-0.24,0.78C448.9-1258.92,447.98-1246.29,441.9-1236.53z"/>
			</g>
			<path class="st2" d="M424.27-1317.31c3.71,7.05,4.29,15.38,1.58,22.88c-0.11,0.31,0.05,0.65,0.36,0.76
				c0.31,0.11,0.65-0.05,0.76-0.36c2.82-7.81,2.22-16.49-1.65-23.83c-1.61-3.05-3.7-5.68-6.1-7.9c-0.27,0.28-0.56,0.55-0.83,0.84
				C420.7-1322.79,422.72-1320.26,424.27-1317.31z"/>
			<path class="st2" d="M476.4-1291.21c0.13-0.39,0.21-0.79,0.32-1.18c-4.23-2.81-9.08-4.7-14.25-5.37
				c-0.13-0.02-0.25,0.01-0.35,0.06c-0.16,0.09-0.28,0.25-0.31,0.44c-0.04,0.32,0.19,0.62,0.51,0.66
				C467.44-1295.93,472.25-1294.04,476.4-1291.21z"/>
			<path class="st2" d="M429.1-1329.52c7.42-3.91,15.91-4.69,23.91-2.21c0.31,0.1,0.49,0.43,0.39,0.74
				c-0.1,0.31-0.43,0.48-0.74,0.39c-7.7-2.39-15.87-1.63-23.01,2.13c-2.99,1.58-5.67,3.61-7.96,6.06c-0.23,0.24-0.6,0.25-0.84,0.03
				c-0.24-0.22-0.25-0.6-0.03-0.83C423.21-1325.76,425.99-1327.88,429.1-1329.52z"/>
			<path class="st2" d="M374.68-1289.91c0.22,0.37,0.43,0.76,0.66,1.12c3.57-0.63,7.3,0.09,10.41,2.16
				c0.28,0.19,0.66,0.11,0.84-0.17c0.19-0.28,0.11-0.65-0.17-0.84C382.92-1289.97,378.69-1290.74,374.68-1289.91z"/>
			<path class="st2" d="M444.16-1240.42c0.17-0.09,0.37-0.09,0.55,0.01c8.18,4.56,18,4.69,26.28,0.33c0.28-0.15,0.63-0.04,0.78,0.24
				c0.15,0.28,0.04,0.63-0.24,0.78c-8.62,4.54-18.86,4.42-27.38-0.34c-0.28-0.16-0.38-0.51-0.22-0.79
				C443.98-1240.3,444.07-1240.37,444.16-1240.42z"/>
			<path class="st2" d="M375.78-1312.46c0.14-0.07,0.31-0.09,0.48-0.04c0.32,0.11,0.48,0.45,0.38,0.76
				c-2.12,6.25-1.59,12.9,1.48,18.73c0.57,1.09,1.23,2.13,1.95,3.11c0.2,0.27,0.14,0.65-0.12,0.85c-0.29,0.21-0.65,0.14-0.85-0.12
				c-0.76-1.03-1.45-2.12-2.05-3.26c-3.23-6.13-3.78-13.11-1.55-19.68C375.54-1312.27,375.64-1312.39,375.78-1312.46z"/>
			<path class="st1" d="M825.22-1218.92c-12.58-7.91-26.96-13.39-42.66-15.47c-58.48-7.77-112.18,33.33-119.95,91.81
				c-7.77,58.48,33.33,112.18,91.81,119.95c10.63,1.41,21.09,1.17,31.15-0.46c5.42,39.46,36.48,72.08,77.88,77.58
				c49.69,6.6,95.32-28.33,101.93-78.01c3.83-28.85-6.4-56.28-25.33-75.55c19.38-13.01,33.35-33.88,36.67-58.84
				c6.13-46.15-26.31-88.54-72.46-94.67C872.68-1256.78,842.86-1242.9,825.22-1218.92z"/>
			<g>
				<path class="st2" d="M785.58-1023.09c0.13,0.98,0.36,1.94,0.52,2.91c20.45-3.29,39.8-12.22,55.64-26.3
					c0.27-0.24,0.44-0.57,0.48-0.91c0.06-0.41-0.07-0.85-0.36-1.18c-0.55-0.61-1.5-0.68-2.11-0.12
					C817-1027.88,785.05-1023,785.58-1023.09z"/>
				<path class="st2" d="M853.72-1195.62c0.63-0.53,0.75-1.46,0.22-2.09c-7.63-9.41-16.7-17.27-26.71-23.59
					c-0.63,0.79-1.34,1.49-1.94,2.3c9.88,6.18,18.82,13.9,26.33,23.16C852.14-1195.2,853.08-1195.1,853.72-1195.62z"/>
			</g>
			<path class="st2" d="M942.7-1101.05c-14.21-14.61-33.17-24.79-54.89-27.68c-13.56-1.8-27.01-0.69-39.98,3.3
				c-0.78,0.24-1.23,1.09-0.99,1.87c0.24,0.79,1.08,1.23,1.87,0.99c12.56-3.86,25.58-4.93,38.71-3.18
				c20.89,2.78,39.14,12.53,52.86,26.52C941.11-1099.8,941.88-1100.46,942.7-1101.05z"/>
			<path class="st2" d="M955.2-1160.77c-2.63,19.76-14.67,37.24-32.19,46.77c-0.73,0.39-1.64,0.13-2.04-0.6
				c-0.38-0.73-0.12-1.64,0.6-2.03c16.7-9.07,28.15-25.72,30.65-44.53c2.72-20.45-5.15-40.54-21.03-53.74
				c-0.65-0.53-0.72-1.47-0.2-2.11c0.53-0.63,1.48-0.72,2.11-0.19C949.8-1203.35,958.06-1182.25,955.2-1160.77z"/>
			<path class="st2" d="M840.76-965.43c-0.02,0.15-0.07,0.31-0.14,0.46c-0.35,0.68-1.19,0.95-1.87,0.6
				c-22.89-11.8-38.77-34.04-42.49-59.5c-0.1-0.74,0.41-1.47,1.18-1.58c0.77-0.11,1.47,0.42,1.59,1.18
				c3.59,24.56,18.92,46.03,41,57.42C840.56-966.58,840.84-966,840.76-965.43z"/>
		</g>
		<g>
			<path class="st1" d="M17.34-1391.48c-1.51,7.3-0.59,15.15,3.15,22.27c8.58,16.29,28.74,22.54,45.03,13.96
				c5.41-2.85,9.69-6.99,12.71-11.83c9.32,5.44,21.14,6.13,31.4,0.73c15.81-8.33,21.87-27.89,13.55-43.69
				c-2.55-4.84-6.16-8.76-10.39-11.64c2.76-8.51,2.23-18.07-2.27-26.61c-8.84-16.79-29.63-23.24-46.42-14.39
				c-3.64,1.92-6.75,4.41-9.37,7.29c-8.56-7.9-21.48-10-32.37-4.26c-13.84,7.29-19.14,24.41-11.86,38.25
				c0.4,0.76,0.84,1.48,1.29,2.18c-1.43,0.25-2.85,0.65-4.2,1.36c-6.95,3.66-9.61,12.26-5.95,19.2
				C4.7-1392.85,11.22-1390.09,17.34-1391.48z"/>
		</g>
	</g>
</pattern>
<rect x="-71.33" y="-105.69" class="st2" width="4428.64" height="2995"/>
<rect x="-45.62" y="-115.19" class="st3" width="4377.22" height="3014"/>
</svg>
