<?xml version="1.0" encoding="utf-8"?>
<!-- Generator: Adobe Illustrator 25.4.1, SVG Export Plug-In . SVG Version: 6.00 Build 0)  -->
<svg version="1.1" id="Capa_1" xmlns="http://www.w3.org/2000/svg" xmlns:xlink="http://www.w3.org/1999/xlink" x="0px" y="0px"
	 viewBox="0 0 1365.93 683.43" style="enable-background:new 0 0 1365.93 683.43;" xml:space="preserve">
<style type="text/css">
	.st0{fill:#56070C;}
	.st1{fill:#FFFFFF;}
	.st2{fill:#FBE16E;}
	.st3{fill:#F4BC5F;}
	.st4{fill:#192444;}
</style>
<g>
	<path class="st0" d="M1352.4,242.37c12.26-19.71,16.37-43.01,11.57-65.6c-3.9-18.38-13.3-34.51-26.93-46.61
		c2.77-8.7,3.16-18.04,1.03-27.2c-3.13-13.44-11.31-24.85-23.05-32.15c-8.12-5.05-17.49-7.73-27.09-7.73c0,0,0,0,0,0
		c-16.47,0-32.14,8.07-41.72,21.27c-5.66-6.59-12.97-11.84-21.57-14.84c-5.43-1.9-11.09-2.86-16.82-2.86
		c-4.76,0-9.41,0.67-13.84,1.92c-5.92-8.23-14.34-14.78-24.61-18.38c-3.41-1.19-6.92-1.97-10.49-2.41
		c-0.74-10.04-4.42-19.65-10.78-27.81c-8.44-10.83-20.59-17.77-34.21-19.54c-2.19-0.29-4.43-0.43-6.64-0.43
		c-25.85,0-47.87,19.32-51.2,44.94l-0.06,0.42c-11.47-4.98-23.95-7.62-36.36-7.62c-5.88,0-11.76,0.59-17.48,1.74
		c-0.1,0.02-0.19,0.04-0.29,0.06c-47.85,10.03-78.98,56.77-69.39,104.2c4.74,23.46,18.89,43.19,38.05,55.75
		c-17.73,11.74-33.18,26.81-45.19,44.55c-7.83-3.73-16.22-6.38-25-7.85l-121.07-20.22c-5.2-0.87-10.5-1.31-15.74-1.31
		c-41.42,0-77.07,26.88-89.19,65.54c-37.02-36.67-87.9-59.04-143.65-59.04c-7.46,0-15.02,0.42-22.46,1.24l-44.02,4.85
		c-14.32,1.58-27.65,6.26-39.27,13.4c-15.48-10.97-34.32-17.38-54.4-17.38c-26.66,0-50.85,11.03-67.99,28.98
		c-8.59-2.57-17.55-3.89-26.63-3.89c-6.63,0-13.31,0.71-19.83,2.11c-24.82,5.33-45.98,20.06-59.61,41.47
		c-0.05,0.07-0.09,0.14-0.14,0.22l-7.92,12.61l-3.49-14.49c-0.02-0.08-0.04-0.17-0.06-0.25c-6.11-24.68-21.46-45.38-43.21-58.3
		c-14.4-8.55-30.8-13.07-47.42-13.07c-7.25,0-14.51,0.86-21.6,2.55c-24.13,5.47-45.44,20.63-58.53,41.64
		C0.78,284.26-3.35,310.35,2.77,334.48l55.3,230.73c0.97,4.05,2.3,8.06,3.97,11.93c1.17,3.14,2.56,6.21,4.15,9.16
		c3.87,8.34,9.35,15.99,16,22.31c2.11,2.18,4.35,4.24,6.71,6.15c2.1,1.88,4.2,3.57,6.37,5.14c5.02,3.73,10.48,6.79,16.27,9.13
		c3.18,1.44,6.48,2.66,9.83,3.63c5.97,1.9,10.84,2.69,12.99,3.04c1.98,0.32,6.5,1.06,12.45,1.21c1.28,0.07,2.57,0.1,3.85,0.1
		c2.61,0,5.25-0.14,7.86-0.42c4.98-0.33,9.91-1.17,14.7-2.49c4.27-1.11,8.53-2.61,12.69-4.49c3.48-1.4,6.86-3.07,10.09-4.99
		c2.74-1.53,5.31-3.16,7.84-4.97c0.07-0.05,0.15-0.11,0.22-0.16c2.25-1.63,4.33-3.3,6.3-5.07c4.52-3.62,8.6-7.76,12.15-12.35
		c3.14-3.94,5.32-7.46,6.33-9.15l47.89-76.02v21.67c0,52.62,41.22,93.84,93.84,93.84c24.21,0,46.32-9.15,63.03-24.15
		c16.94,16.33,39.95,26.25,65.13,26.25c3.42,0,6.89-0.19,10.3-0.57l44.03-4.85c37.98-4.18,73.22-18.62,102.66-41.6
		c13.86,16.44,33.39,28.23,56.21,32.04c0.19,0.03,0.38,0.06,0.56,0.09c0.19,0.03,0.38,0.07,0.57,0.1l119.94,20.03
		c5.01,0.84,10.13,1.26,15.22,1.26c18.59,0,36.26-5.64,51.15-15.36c11.63,13.58,27.02,23.44,44.67,28.41
		c8.1,2.28,16.45,3.43,24.82,3.43c14.01,0,27.63-3.2,39.93-9.17c16.54,13.34,35.67,23.21,56.64,29.11
		c14.18,3.99,28.79,6.01,43.43,6.01c70.73,0,133.65-47.23,153.02-114.86c4.34-15.16,6.34-30.87,5.99-46.56
		c35.34-19.87,61.94-52.95,73.17-92.15c11.34-39.6,6.53-81.25-13.56-117.26c-6.69-11.99-14.83-22.85-24.14-32.47
		C1323.37,273.88,1341.07,260.59,1352.4,242.37z"/>
	<g>
		<g>
			<path class="st1" d="M972.95,135.57c-5.17-25.57,12.05-50.3,37.39-55.61c11.04-2.23,22.16-0.27,31.29,4.21
				c4.9,2.46,6.9,8.56,4.77,13.2c-2.79,5.16-8.52,7.08-13.42,4.63c-5.49-2.53-11.86-3.73-18.67-2.36
				c-14.9,3.01-24.73,17.83-21.87,31.99c2.86,14.16,17.64,23.82,32.54,20.8c6.62-1.34,12.21-4.96,16.29-9.42
				c3.41-3.95,9.63-4.44,14.21-0.76c3.76,3.45,4.22,9.49,0.73,14.02c-6.76,7.3-16.24,13.43-27.28,15.66
				C1003.55,177.06,978.04,160.77,972.95,135.57z"/>
			<path class="st1" d="M1108.57,41.37c5.77,0.75,9.82,6.01,9.09,11.59l-14.29,109.79c-0.73,5.58-5.98,9.63-11.75,8.88
				c-5.58-0.73-9.63-5.98-8.9-11.57l14.29-109.79C1097.73,44.69,1102.99,40.64,1108.57,41.37z"/>
			<path class="st1" d="M1152.25,187.33c-20.19-7.06-31.03-29.53-23.97-49.72l14.8-42.34c1.73-4.96,7.53-7.9,12.67-6.11
				c5.31,1.86,7.84,7.71,6.11,12.67l-14.8,42.34c-3.53,10.1,1.65,20.85,11.75,24.38c10.27,3.59,21.21-1.53,24.91-11.57l14.8-42.34
				c1.73-4.96,7.18-8.03,12.49-6.17c4.96,1.73,8.02,7.77,6.28,12.73l-14.8,42.34C1195.45,183.74,1172.62,194.45,1152.25,187.33z"/>
			<path class="st1" d="M1239.91,172.38c0.1-0.16,0.1-0.16,0.1-0.16l39.26-63.09c2.88-4.62,9.18-6.22,13.96-3.25
				c4.94,3.07,6.29,9.43,3.41,14.05L1278,149.88c8.47-0.47,17.7,1.73,25.51,6.59c21.51,13.38,27.42,42.25,13.84,64.08
				c-13.39,21.51-41.9,28.97-63.4,15.58c-7.96-4.96-13.93-12.42-17.41-20.33c-3.17,3.33-8.4,4.27-12.71,1.6
				c-4.78-2.97-6.12-9.34-3.25-13.96L1239.91,172.38z M1257.28,183.18c-3.77,6.06-4.95,13.28-3.44,19.74
				c1.4,6.62,5.02,12.18,10.91,15.85c5.74,3.57,12.48,4.45,19.04,2.79c6.46-1.5,12.42-5.75,16.19-11.81
				c3.97-6.37,5.15-13.6,3.64-20.06c-1.4-6.62-5.18-12.28-10.91-15.85c-5.89-3.67-12.48-4.45-19.04-2.79
				C1267.2,172.56,1261.25,176.81,1257.28,183.18z"/>
		</g>
		<g>
			<path class="st2" d="M1011.87,591.84c15.01,21.48,37.34,38.14,64.68,45.83c62.63,17.62,127.81-18.41,145.58-80.47
				c5.91-20.62,5.72-41.48,0.7-60.84c36.67-10.49,67.27-38.81,78.46-77.87c17.25-60.22-18.03-122.89-78.8-139.99
				c-18.61-5.24-37.44-5.54-55.12-1.78c-15.05-27.56-40.81-49.35-73.64-58.58c-64.56-18.16-131.75,18.98-150.08,82.96
				c-3.97,13.85-5.18,27.8-4.2,41.38c-41.11,2.63-77.98,30.32-89.88,71.83c-15.1,52.71,15.78,107.57,68.97,122.54
				c2.91,0.82,5.82,1.44,8.73,1.99c-2.85,4.22-5.27,8.8-6.75,13.94c-7.58,26.46,7.92,54.01,34.63,61.52
				C977.53,620.59,1000.49,610.71,1011.87,591.84z"/>
			<g>
				<path class="st3" d="M957.41,509.41c-0.43,0-0.86,0.05-1.28,0.14c-8.24,1.83-15.78,5.37-22.32,10.25
					c-3.32-0.5-6.63-1.16-9.87-2.07c-21.41-6.02-38.9-20.11-49.25-39.67c-1.02-1.93-3.01-3.13-5.2-3.13c0,0,0,0,0,0
					c-0.94,0-1.88,0.23-2.72,0.66c-1.42,0.73-2.5,2.04-2.94,3.59c-0.42,1.46-0.26,3,0.45,4.35c11.86,22.43,31.91,38.58,56.46,45.49
					c0.91,0.26,1.85,0.44,2.77,0.67c-1.5,1.85-2.93,3.76-4.22,5.81c-0.27,0.43-0.42,0.91-0.5,1.4c2.83,0.79,5.67,1.4,8.51,1.93
					c-0.7,1.03-1.36,2.08-2,3.16c0.32,0.07,0.64,0.15,0.96,0.21c0.23,0.04,0.47,0.07,0.7,0.07c1.24,0,2.41-0.61,3.12-1.66
					c6.72-10.03,16.89-16.99,28.62-19.6c1.57-0.35,2.89-1.29,3.73-2.64c0.83-1.33,1.09-2.91,0.72-4.43
					C962.55,511.3,960.19,509.41,957.41,509.41z M869.42,478.71c0.03,0,0.05-0.02,0.08-0.02c0.06,0,0.11,0.04,0.16,0.04
					C869.57,478.73,869.5,478.71,869.42,478.71z M956.94,513.22c0.16-0.04,0.31-0.05,0.47-0.05c0.08,0,0.14,0.03,0.22,0.04
					C957.4,513.18,957.17,513.17,956.94,513.22z"/>
				<path class="st3" d="M1037.59,401.94c0.89,0,1.79-0.21,2.59-0.61c1.39-0.68,2.45-1.88,2.95-3.37c0.49-1.47,0.37-3.1-0.33-4.49
					c-13.56-26.94-38.11-47.12-67.34-55.34c-5.8-1.63-11.78-2.71-17.83-3.34c-0.1-9.74,1.14-19.44,3.85-28.92
					c7.51-26.22,24.87-47.97,48.89-61.25c2.81-1.58,3.82-5.13,2.27-7.92c-1.06-1.86-3.01-3-5.11-3c-0.98,0-1.96,0.25-2.82,0.72
					c-26.77,14.8-46.11,39.03-54.48,68.24c-2.96,10.32-4.33,20.89-4.29,31.48c-2.24,0.01-4.51,0.07-6.77,0.22
					c0.02,2.71,0.1,5.41,0.29,8.09c-1.23,0.08-2.44,0.25-3.66,0.38c0.29,1.81,1.81,3.16,3.65,3.16c0.08,0,0.16,0,0.25-0.01
					c2.19-0.14,4.41-0.21,6.58-0.21c8.89,0,17.63,1.19,26,3.55c26.08,7.34,47.97,25.33,60.08,49.38
					C1033.36,400.71,1035.36,401.94,1037.59,401.94z M1037.65,398.17c-0.02,0-0.04,0.01-0.06,0.01c-0.05,0-0.09-0.04-0.14-0.04
					C1037.51,398.15,1037.58,398.18,1037.65,398.17z M1007.53,237.47c0.06,0,0.11,0.04,0.17,0.05c-0.09-0.01-0.17-0.03-0.26-0.02
					C1007.47,237.49,1007.5,237.47,1007.53,237.47z M939.33,338.14c2.21-0.14,4.43-0.21,6.67-0.21c0,0.02,0,0.04,0,0.05
					C943.76,337.98,941.54,338,939.33,338.14z M956.93,342.66c0.01-0.01,0.01-0.02,0.01-0.03c0.23,0.02,0.47,0.07,0.71,0.1
					C957.41,342.7,957.17,342.68,956.93,342.66z M966.36,339.87c2.69,0.53,5.39,1.13,8.07,1.89
					C971.75,341,969.06,340.39,966.36,339.87z"/>
				<path class="st3" d="M998.66,494.36c0.43-1.49,0.25-3.05-0.51-4.4c-0.75-1.35-1.99-2.33-3.49-2.75
					c-0.51-0.14-1.04-0.22-1.57-0.22c-2.57,0-4.86,1.72-5.57,4.19c-10.46,36.53-3.66,75.35,18.66,106.5
					c0.24,0.33,0.54,0.6,0.87,0.84c1.77-2.07,3.39-4.3,4.82-6.67c0.75,1.07,1.6,2.07,2.38,3.12c0.22-0.32,0.45-0.6,0.67-0.95
					c0.78-1.27,0.73-2.89-0.13-4.11C995.18,561.86,989.3,527.03,998.66,494.36z M992.95,490.77c0.05,0,0.1-0.02,0.15-0.02
					c0.18,0,0.37,0.02,0.56,0.08C993.42,490.76,993.18,490.75,992.95,490.77z"/>
				<path class="st3" d="M1288.48,408.88c-0.51-0.14-1.04-0.22-1.57-0.22c0,0,0,0,0,0c-2.57,0-4.86,1.72-5.57,4.19
					c-8.22,28.71-29.62,51.44-57.73,61.7c-15.11-33.49-44.5-59.3-80.46-69.42c-0.51-0.14-1.04-0.22-1.57-0.22
					c-2.57,0-4.86,1.72-5.57,4.19c-0.43,1.48-0.25,3.05,0.51,4.39c0.75,1.35,1.99,2.33,3.49,2.75
					c38.85,10.93,69.29,41.95,79.45,80.97c0.26,0.98,0.9,1.81,1.77,2.32c0.57,0.33,1.21,0.49,1.86,0.49c0.19,0,0.37-0.05,0.56-0.08
					c-0.27-1.2-0.5-2.4-0.81-3.59c2.6-0.74,5.16-1.6,7.69-2.52c-0.77-2.9-1.65-5.75-2.62-8.56c31.42-11.57,55.34-37.08,64.56-69.27
					c0.43-1.49,0.25-3.05-0.51-4.4C1291.21,410.27,1289.97,409.3,1288.48,408.88z M1141.44,408.69c0.05,0,0.09-0.02,0.14-0.02
					c0.18,0,0.37,0.02,0.56,0.08C1141.9,408.68,1141.67,408.68,1141.44,408.69z M1284.94,413.89c-1.13,3.94-2.5,7.77-4.09,11.48
					C1282.45,421.66,1283.81,417.83,1284.94,413.89c0.07-0.25,0.19-0.47,0.34-0.66C1285.14,413.42,1285.01,413.64,1284.94,413.89z
					 M1286.76,412.44c0.05,0,0.09-0.02,0.14-0.02c0.18,0,0.37,0.02,0.56,0.08C1287.22,412.42,1286.99,412.42,1286.76,412.44z"/>
				<path class="st3" d="M1117.84,303.49c1.33,0,2.64-0.46,3.67-1.3c13.4-10.73,29.51-18.32,46.57-21.94
					c1.16-0.25,2.14-1.03,2.63-2.11c0.3-0.66,0.33-1.37,0.24-2.08c-1.19,0.21-2.38,0.4-3.56,0.65c-1.34-2.45-2.79-4.83-4.29-7.18
					c-17.95,4.21-34.84,12.34-48.9,23.6c-0.92,0.72-1.62,1.74-1.96,2.93c-0.52,1.82-0.12,3.78,1.07,5.26
					C1114.43,302.71,1116.08,303.49,1117.84,303.49z M1118.22,299.68c-0.13,0.02-0.25,0.06-0.38,0.06c-0.03,0-0.07-0.02-0.1-0.02
					C1117.9,299.73,1118.06,299.71,1118.22,299.68z"/>
			</g>
		</g>
		<g>
			<path class="st4" d="M295.65,310.44c-8.2-5.26-18.04-7-27.75-4.92c-9.96,2.14-18.44,8.02-23.93,16.65l-78.94,125.75
				l-34.83-144.44c-2.45-9.89-8.59-18.17-17.29-23.34c-8.38-4.98-18.12-6.42-27.48-4.09c-9.71,2.11-18.26,8.12-23.52,16.57
				c-5.33,8.56-6.93,19-4.49,28.31l55.41,231.17c0.34,1.41,0.85,2.76,1.53,4.04c0.49,1.74,1.24,3.38,2.23,4.87
				c0.03,0.05,0.05,0.09,0.08,0.14c0.9,2.56,2.41,4.91,4.46,6.81l0.86,0.78c0.96,1.14,2.06,2.14,3.26,2.97
				c0.95,0.91,1.95,1.83,3.13,2.68c0.07,0.05,0.15,0.11,0.22,0.16c1.51,1.17,3.23,2.09,5.11,2.7c1.26,0.68,2.59,1.2,3.98,1.54
				c2.34,0.82,4.43,1.16,5.73,1.38c1.24,0.2,3.14,0.51,5.62,0.5c1.42,0.14,2.86,0.09,4.27-0.14l0.28-0.05
				c1.71,0.01,3.41-0.25,5.03-0.74c2.23-0.53,4.04-1.35,5.3-1.98c1.37-0.46,2.68-1.08,3.89-1.87c0.67-0.35,1.84-0.98,3.24-1.98
				c1.17-0.85,2.07-1.65,2.84-2.49c1.66-1.09,3.12-2.48,4.31-4.1c1.21-1.44,2.02-2.8,2.57-3.75c0.06-0.09,0.11-0.18,0.17-0.27
				L307.92,361.7c5.14-8.4,6.7-18.8,4.3-28.53C309.84,323.55,303.96,315.49,295.65,310.44z M132.33,576.39
				c-0.15-0.1-0.3-0.2-0.44-0.31C132.04,576.19,132.19,576.29,132.33,576.39C132.34,576.39,132.34,576.39,132.33,576.39z"/>
			<path class="st1" d="M94.23,274.96c6.49,0,12.9,1.75,18.67,5.18c8.7,5.17,14.84,13.45,17.29,23.34l34.83,144.44l78.94-125.75
				c5.49-8.63,13.97-14.51,23.93-16.65c2.67-0.57,5.36-0.86,8.01-0.86c6.99,0,13.79,1.97,19.74,5.78
				c8.31,5.06,14.19,13.11,16.57,22.73c2.41,9.73,0.84,20.12-4.3,28.53L180.95,563.27c-0.06,0.09-0.11,0.18-0.17,0.27
				c-0.56,0.95-1.37,2.31-2.57,3.75c-1.19,1.62-2.65,3.01-4.31,4.1c-0.78,0.83-1.67,1.64-2.84,2.49c-1.4,1-2.57,1.63-3.24,1.98
				c-1.21,0.79-2.52,1.42-3.89,1.87c-1.26,0.63-3.07,1.46-5.3,1.98c-1.61,0.49-3.28,0.74-4.96,0.74c-0.02,0-0.05,0-0.07,0
				l-0.28,0.05c-0.89,0.14-1.78,0.21-2.67,0.21c-0.53,0-1.07-0.03-1.6-0.08c-0.06,0-0.11,0-0.16,0c-2.4,0-4.24-0.3-5.46-0.5
				c-1.3-0.21-3.39-0.55-5.73-1.38c-1.39-0.34-2.73-0.86-3.98-1.54c-1.88-0.61-3.6-1.53-5.11-2.7c-0.07-0.05-0.15-0.1-0.22-0.16
				c-1.18-0.85-2.18-1.76-3.13-2.68c-1.21-0.84-2.3-1.84-3.26-2.97l-0.86-0.78c-2.05-1.9-3.56-4.25-4.46-6.81
				c-0.03-0.05-0.05-0.09-0.08-0.14c-0.98-1.49-1.74-3.13-2.23-4.87c-0.68-1.27-1.2-2.63-1.53-4.04L57.41,320.92
				c-2.44-9.31-0.84-19.75,4.49-28.31c5.26-8.44,13.81-14.46,23.52-16.57C88.34,275.32,91.29,274.96,94.23,274.96 M132.18,576.29
				c0.05,0.04,0.1,0.07,0.15,0.11c0,0,0.01,0,0.01,0C132.29,576.36,132.23,576.32,132.18,576.29c-0.1-0.07-0.19-0.14-0.29-0.2
				C131.99,576.15,132.08,576.22,132.18,576.29 M94.23,259.95c-4.1,0-8.21,0.5-12.22,1.48c-13.55,3-25.52,11.47-32.86,23.25
				c-7.47,12-9.77,26.52-6.31,39.89l55.37,231.03c0.5,2.11,1.23,4.17,2.16,6.15c0.71,2.11,1.64,4.15,2.77,6.07
				c1.75,4.21,4.41,8.02,7.75,11.12c0.05,0.05,0.11,0.1,0.16,0.15l0.22,0.19c1.32,1.45,2.76,2.77,4.32,3.95c1.07,1,2.41,2.17,4,3.31
				l0.08,0.06c2.48,1.87,5.19,3.36,8.1,4.44c1.79,0.87,3.65,1.57,5.57,2.1c3.31,1.1,6.1,1.56,7.65,1.81
				c1.42,0.23,4.02,0.66,7.41,0.69c0.74,0.05,1.49,0.08,2.23,0.08c1.42,0,2.86-0.1,4.27-0.29c2.61-0.11,5.14-0.52,7.6-1.22
				c2.41-0.6,4.79-1.46,7.22-2.62c1.96-0.73,3.84-1.65,5.62-2.75c1.13-0.61,2.68-1.51,4.43-2.76c1.43-1.04,2.69-2.08,3.84-3.19
				c2.42-1.8,4.56-3.92,6.39-6.33c1.74-2.14,2.92-4.08,3.56-5.18c0.03-0.05,0.06-0.1,0.07-0.11L320.63,369.7
				c0.04-0.06,0.07-0.11,0.1-0.17c7.22-11.8,9.43-26.37,6.06-39.97c-3.32-13.42-11.55-24.72-23.19-31.86
				c-8.28-5.27-17.85-8.06-27.69-8.06c-3.72,0-7.48,0.4-11.17,1.19c-13.92,2.99-25.8,11.26-33.45,23.27l-60.04,95.63l-26.48-109.78
				c-3.45-13.91-12.04-25.5-24.21-32.73C112.54,262.47,103.44,259.95,94.23,259.95L94.23,259.95z"/>
		</g>
		<g>
			<path class="st4" d="M370.53,279.57c-21.05,0-37.54,16.49-37.54,37.54v221.46c0,21.05,16.49,37.54,37.54,37.54
				c20.9,0,37.91-16.84,37.91-37.54V317.11C408.44,296.41,391.44,279.57,370.53,279.57z"/>
			<path class="st1" d="M370.53,279.57c20.9,0,37.91,16.84,37.91,37.54v221.46c0,20.7-17.01,37.54-37.91,37.54
				c-21.05,0-37.54-16.49-37.54-37.54V317.11C333,296.06,349.48,279.57,370.53,279.57 M370.53,264.56
				c-29.47,0-52.55,23.08-52.55,52.55v221.46c0,29.47,23.08,52.55,52.55,52.55c29.18,0,52.92-23.57,52.92-52.55V317.11
				C423.46,288.13,399.71,264.56,370.53,264.56L370.53,264.56z"/>
		</g>
		<g>
			<path class="st4" d="M514.39,278.37l-44.03,4.85c-20.92,2.3-35.51,20.5-33.2,41.42l24.24,220.13
				c2.27,20.57,20.85,35.47,41.42,33.2l44.03-4.85c81.06-8.93,139.7-82.47,130.73-163.94C668.66,328.13,595.45,269.45,514.39,278.37
				z M538.59,498.13l-6.34,0.7l-15.94-144.77l6.34-0.7c39.71-4.37,75.57,24.37,79.94,64.08
				C607.05,457.94,578.88,493.39,538.59,498.13z"/>
			<path class="st1" d="M530.69,277.48c74.35,0,138.57,56.13,146.89,131.71c8.97,81.47-49.67,155.01-130.73,163.94l-44.03,4.85
				c-1.39,0.15-2.77,0.23-4.14,0.23c-18.87,0-35.17-14.25-37.28-33.43l-24.24-220.13c-2.3-20.92,12.28-39.12,33.2-41.42l44.03-4.85
				C519.87,277.77,525.3,277.48,530.69,277.48 M532.25,498.83l6.34-0.7c40.29-4.75,68.46-40.2,64-80.69
				c-4.08-37.03-35.53-64.52-71.96-64.52c-2.64,0-5.3,0.14-7.98,0.44l-6.34,0.7L532.25,498.83 M530.69,262.46
				c-5.95,0-11.99,0.33-17.94,0.99l-44.03,4.85c-14.11,1.55-26.67,8.39-35.38,19.26c-8.71,10.87-12.65,24.62-11.1,38.73
				l24.24,220.13c2.94,26.68,25.38,46.8,52.21,46.8c1.92,0,3.86-0.11,5.78-0.32l44.03-4.85c43.2-4.76,81.99-26.18,109.22-60.33
				c27.21-34.12,39.57-76.8,34.79-120.18C683.4,324.83,613.83,262.46,530.69,262.46L530.69,262.46z M545.45,481.57l-12.51-113.59
				c28.27,1.12,51.6,22.71,54.72,51.11C590.88,448.3,572.79,474.21,545.45,481.57L545.45,481.57z"/>
		</g>
		<g>
			<path class="st4" d="M878.64,366.14c20.07,3.35,39.88-10.94,43.27-31.21c3.41-20.42-10.43-39.8-30.84-43.21L770,271.51
				c-20.76-3.47-39.74,10.08-43.2,30.84l-36.48,218.43c-3.41,20.42,10.42,39.8,30.84,43.21c0.18,0.03,0.36,0.06,0.55,0.08
				c0.19,0.04,0.37,0.07,0.56,0.1l119.95,20.03c20.07,3.35,39.85-10.77,43.21-30.84c3.38-20.27-10.71-40.22-30.78-43.57
				l-83.67-13.97l5.81-34.8l69.6,11.62c20.41,3.41,39.82-10.59,43.27-31.21c3.35-20.07-10.77-39.85-30.84-43.2l-69.6-11.62
				l5.75-34.44L878.64,366.14z"/>
			<path class="st1" d="M763.53,270.97c2.13,0,4.29,0.18,6.47,0.54l121.07,20.22c20.41,3.41,34.25,22.79,30.84,43.21
				c-3.05,18.28-19.47,31.7-37.38,31.7c-1.95,0-3.92-0.16-5.89-0.49l-83.67-13.97l-5.75,34.44l69.6,11.62
				c20.07,3.35,34.19,23.14,30.84,43.2c-3.1,18.54-19.09,31.72-37.12,31.72c-2.03,0-4.08-0.17-6.14-0.51l-69.6-11.62l-5.81,34.8
				l83.67,13.97c20.07,3.35,34.16,23.3,30.78,43.57c-3.02,18.08-19.38,31.33-37.26,31.33c-1.97,0-3.95-0.16-5.94-0.49l-119.95-20.03
				c-0.19-0.03-0.38-0.07-0.56-0.1c-0.18-0.02-0.36-0.05-0.55-0.08c-20.41-3.41-34.25-22.79-30.84-43.21l36.48-218.43
				C729.9,283.77,745.42,270.97,763.53,270.97 M763.53,255.96C763.53,255.96,763.53,255.96,763.53,255.96
				c-25.62,0-47.29,18.47-51.54,43.92l-36.48,218.43c-4.77,28.58,14.6,55.72,43.17,60.49c0.18,0.03,0.37,0.06,0.55,0.09
				c0.19,0.03,0.38,0.07,0.57,0.1l119.95,20.03c2.77,0.46,5.6,0.7,8.42,0.7c25.51,0,47.89-18.86,52.07-43.88
				c2.29-13.73-0.95-27.67-9.14-39.26c-8.22-11.64-20.29-19.3-33.97-21.59l-68.86-11.5l0.87-5.19l54.8,9.15
				c2.85,0.48,5.75,0.72,8.62,0.72c25.81,0,47.65-18.62,51.93-44.26c2.28-13.66-1-27.53-9.23-39.07
				c-8.23-11.53-20.29-19.14-33.95-21.42l-54.8-9.15l0.8-4.82l68.86,11.5c2.75,0.46,5.57,0.69,8.36,0.69
				c25.54,0,47.98-19.02,52.19-44.24c2.31-13.83-0.91-27.74-9.08-39.18c-8.16-11.43-20.27-19-34.1-21.31L772.47,256.7
				C769.51,256.21,766.5,255.96,763.53,255.96L763.53,255.96L763.53,255.96z"/>
		</g>
	</g>
</g>
</svg>
