<?xml version="1.0" encoding="utf-8"?>
<!-- Generator: Adobe Illustrator 25.4.1, SVG Export Plug-In . SVG Version: 6.00 Build 0)  -->
<svg version="1.1" id="Capa_1" xmlns="http://www.w3.org/2000/svg" xmlns:xlink="http://www.w3.org/1999/xlink" x="0px" y="0px"
	 viewBox="0 0 1335.42 625.23" style="enable-background:new 0 0 1335.42 625.23;" xml:space="preserve">
<style type="text/css">
	.st0{fill:#FFFFFF;}
	.st1{fill:#CF6D6D;}
</style>
<g>
	<g>
		<g>
			<path class="st0" d="M969.48,98.11c-5.38-26.61,12.54-52.34,38.91-57.87c11.49-2.32,23.06-0.28,32.56,4.38
				c5.1,2.56,7.18,8.91,4.97,13.74c-2.9,5.37-8.87,7.37-13.97,4.82c-5.71-2.63-12.34-3.88-19.42-2.45
				c-15.5,3.13-25.74,18.55-22.76,33.29c2.98,14.74,18.36,24.78,33.86,21.65c6.89-1.39,12.7-5.16,16.95-9.8
				c3.55-4.11,10.03-4.62,14.78-0.8c3.91,3.59,4.39,9.87,0.76,14.59c-7.03,7.6-16.9,13.97-28.39,16.29
				C1001.32,141.28,974.78,124.33,969.48,98.11z"/>
			<path class="st0" d="M1110.6,0.09c6,0.78,10.21,6.25,9.46,12.06l-14.87,114.24c-0.76,5.81-6.23,10.02-12.23,9.24
				c-5.81-0.76-10.02-6.23-9.26-12.04l14.87-114.24C1099.32,3.54,1104.79-0.67,1110.6,0.09z"/>
			<path class="st0" d="M1156.05,151.97c-21.01-7.34-32.28-30.73-24.94-51.74l15.4-44.05c1.8-5.16,7.84-8.22,13.18-6.35
				c5.53,1.93,8.16,8.02,6.35,13.18l-15.4,44.05c-3.67,10.51,1.72,21.7,12.23,25.37c10.69,3.74,22.07-1.6,25.92-12.04l15.4-44.05
				c1.8-5.16,7.47-8.35,13-6.42c5.16,1.8,8.34,8.09,6.54,13.25l-15.4,44.05C1201,148.24,1177.25,159.38,1156.05,151.97z"/>
			<path class="st0" d="M1247.27,136.41c0.1-0.17,0.1-0.17,0.1-0.17l40.85-65.65c2.99-4.81,9.55-6.48,14.52-3.38
				c5.14,3.2,6.54,9.82,3.55,14.63L1286.91,113c8.81-0.49,18.42,1.8,26.55,6.86c22.39,13.93,28.53,43.97,14.4,66.68
				c-13.93,22.38-43.6,30.14-65.98,16.21c-8.29-5.16-14.49-12.93-18.11-21.16c-3.3,3.46-8.75,4.45-13.22,1.66
				c-4.97-3.1-6.37-9.72-3.38-14.52L1247.27,136.41z M1265.34,147.65c-3.92,6.3-5.15,13.82-3.58,20.54
				c1.46,6.89,5.22,12.68,11.35,16.49c5.97,3.71,12.99,4.63,19.81,2.9c6.72-1.57,12.93-5.99,16.84-12.29
				c4.13-6.63,5.35-14.15,3.79-20.87c-1.46-6.89-5.39-12.78-11.35-16.49c-6.13-3.82-12.99-4.63-19.81-2.9
				C1275.67,136.6,1269.47,141.02,1265.34,147.65z"/>
		</g>
		<g>
			<path class="st0" d="M1009.98,572.9c15.62,22.35,38.85,39.68,67.31,47.69c65.17,18.33,132.99-19.16,151.49-83.74
				c6.15-21.45,5.96-43.16,0.73-63.3c38.16-10.91,69.99-40.38,81.64-81.03c17.95-62.66-18.76-127.88-81.99-145.67
				c-19.37-5.45-38.96-5.77-57.36-1.85c-15.66-28.68-42.47-51.35-76.63-60.96c-67.18-18.9-137.1,19.75-156.17,86.32
				c-4.13,14.42-5.39,28.93-4.37,43.06c-42.77,2.74-81.15,31.55-93.52,74.74c-15.71,54.85,16.42,111.94,71.77,127.51
				c3.03,0.85,6.06,1.5,9.09,2.07c-2.96,4.39-5.49,9.15-7.02,14.51c-7.89,27.54,8.24,56.2,36.03,64.02
				C974.24,602.81,998.13,592.53,1009.98,572.9z"/>
			<g>
				<path class="st1" d="M953.31,487.12c-0.45,0-0.9,0.05-1.33,0.15c-8.57,1.91-16.42,5.59-23.22,10.67
					c-3.45-0.52-6.9-1.21-10.27-2.16c-22.28-6.27-40.48-20.93-51.25-41.28c-1.06-2.01-3.14-3.26-5.41-3.26c0,0,0,0,0,0
					c-0.98,0-1.96,0.24-2.83,0.69c-1.48,0.76-2.6,2.12-3.06,3.74c-0.43,1.52-0.27,3.13,0.47,4.53
					c12.34,23.34,33.2,40.14,58.75,47.33c0.95,0.27,1.92,0.45,2.88,0.69c-1.56,1.92-3.05,3.91-4.39,6.04
					c-0.28,0.45-0.44,0.95-0.52,1.46c2.95,0.82,5.9,1.46,8.85,2.01c-0.72,1.07-1.42,2.17-2.08,3.29c0.33,0.07,0.67,0.16,1,0.22
					c0.24,0.05,0.49,0.07,0.73,0.07c1.29,0,2.51-0.64,3.24-1.73c7-10.44,17.57-17.68,29.78-20.4c1.63-0.37,3-1.34,3.88-2.74
					c0.86-1.39,1.13-3.03,0.75-4.61C958.65,489.08,956.19,487.12,953.31,487.12z M861.74,455.17c0.03,0,0.05-0.02,0.08-0.02
					c0.06,0,0.11,0.04,0.17,0.05C861.91,455.19,861.83,455.17,861.74,455.17z M952.82,491.08c0.16-0.04,0.33-0.05,0.49-0.05
					c0.08,0,0.15,0.03,0.23,0.04C953.3,491.04,953.06,491.03,952.82,491.08z"/>
				<path class="st1" d="M1036.74,375.29c0.93,0,1.86-0.22,2.7-0.63c1.45-0.7,2.55-1.95,3.07-3.5c0.51-1.53,0.39-3.23-0.35-4.67
					c-14.11-28.03-39.66-49.03-70.07-57.59c-6.04-1.7-12.25-2.82-18.56-3.47c-0.1-10.13,1.18-20.23,4.01-30.09
					c7.82-27.28,25.88-49.92,50.88-63.73c2.93-1.64,3.98-5.34,2.37-8.24c-1.1-1.94-3.13-3.12-5.32-3.12c-1.02,0-2.04,0.26-2.94,0.75
					c-27.85,15.4-47.98,40.62-56.69,71.01c-3.08,10.74-4.51,21.74-4.47,32.76c-2.33,0.01-4.7,0.08-7.04,0.22
					c0.02,2.82,0.1,5.63,0.3,8.42c-1.28,0.08-2.54,0.26-3.81,0.39c0.31,1.88,1.89,3.29,3.8,3.29c0.09,0,0.17,0,0.26-0.01
					c2.28-0.15,4.58-0.22,6.85-0.22c9.25,0,18.35,1.24,27.06,3.69c27.13,7.63,49.92,26.36,62.52,51.38
					C1032.34,374,1034.42,375.29,1036.74,375.29z M1036.8,371.37c-0.02,0-0.04,0.01-0.06,0.01c-0.05,0-0.1-0.04-0.15-0.04
					C1036.66,371.34,1036.73,371.37,1036.8,371.37z M1005.46,204.15c0.06,0,0.12,0.04,0.18,0.05c-0.09-0.01-0.18-0.03-0.27-0.02
					C1005.4,204.17,1005.43,204.15,1005.46,204.15z M934.49,308.89c2.3-0.15,4.61-0.21,6.94-0.22c0,0.02,0,0.04,0,0.06
					C939.11,308.73,936.79,308.75,934.49,308.89z M952.81,313.6c0.01-0.01,0.01-0.02,0.01-0.03c0.24,0.03,0.49,0.08,0.73,0.1
					C953.3,313.64,953.05,313.62,952.81,313.6z M962.62,310.7c2.8,0.55,5.6,1.18,8.4,1.96C968.23,311.87,965.42,311.24,962.62,310.7
					z"/>
				<path class="st1" d="M996.23,471.45c0.44-1.55,0.26-3.17-0.53-4.58c-0.78-1.41-2.07-2.42-3.63-2.86
					c-0.53-0.15-1.09-0.23-1.64-0.23c-2.67,0-5.06,1.79-5.79,4.36c-10.89,38.02-3.81,78.41,19.42,110.82
					c0.25,0.35,0.56,0.63,0.9,0.87c1.84-2.16,3.52-4.48,5.01-6.94c0.78,1.11,1.66,2.16,2.48,3.25c0.23-0.34,0.47-0.62,0.7-0.99
					c0.81-1.32,0.76-3-0.13-4.27C992.61,541.7,986.49,505.46,996.23,471.45z M990.29,467.72c0.05,0,0.1-0.02,0.15-0.02
					c0.19,0,0.39,0.03,0.58,0.08C990.78,467.71,990.53,467.7,990.29,467.72z"/>
				<path class="st1" d="M1297.81,382.51c-0.53-0.15-1.08-0.23-1.64-0.23c0,0,0,0,0,0c-2.68,0-5.06,1.79-5.79,4.36
					c-8.56,29.87-30.83,53.53-60.07,64.2c-15.73-34.85-46.31-61.71-83.72-72.23c-0.53-0.15-1.08-0.23-1.64-0.23
					c-2.68,0-5.06,1.79-5.79,4.36c-0.44,1.54-0.26,3.17,0.53,4.57c0.78,1.41,2.07,2.42,3.63,2.86
					c40.43,11.37,72.11,43.66,82.68,84.25c0.27,1.02,0.93,1.89,1.85,2.41c0.59,0.34,1.26,0.51,1.93,0.51c0.2,0,0.39-0.05,0.58-0.08
					c-0.28-1.24-0.52-2.5-0.84-3.73c2.7-0.77,5.36-1.66,8-2.62c-0.8-3.01-1.72-5.98-2.72-8.9c32.69-12.04,57.58-38.58,67.18-72.08
					c0.44-1.55,0.26-3.17-0.53-4.57C1300.65,383.96,1299.36,382.94,1297.81,382.51z M1144.8,382.31c0.05,0,0.1-0.02,0.15-0.02
					c0.19,0,0.39,0.03,0.58,0.08C1145.28,382.3,1145.04,382.3,1144.8,382.31z M1294.13,387.72c-1.17,4.1-2.6,8.09-4.25,11.95
					C1291.53,395.81,1292.96,391.82,1294.13,387.72c0.07-0.26,0.2-0.49,0.36-0.69C1294.33,387.23,1294.2,387.46,1294.13,387.72z
					 M1296.02,386.21c0.05,0,0.1-0.02,0.15-0.02c0.19,0,0.39,0.03,0.58,0.08C1296.5,386.2,1296.26,386.19,1296.02,386.21z"/>
				<path class="st1" d="M1120.25,272.85c1.39,0,2.74-0.48,3.82-1.35c13.95-11.17,30.71-19.06,48.45-22.83
					c1.21-0.26,2.22-1.07,2.74-2.19c0.32-0.69,0.35-1.43,0.25-2.16c-1.24,0.22-2.48,0.41-3.71,0.68c-1.39-2.55-2.9-5.03-4.46-7.47
					c-18.68,4.38-36.25,12.84-50.89,24.56c-0.96,0.75-1.68,1.82-2.04,3.05c-0.54,1.89-0.13,3.94,1.11,5.47
					C1116.69,272.03,1118.41,272.85,1120.25,272.85z M1120.64,268.88c-0.13,0.02-0.26,0.07-0.39,0.07c-0.04,0-0.07-0.02-0.1-0.02
					C1120.31,268.93,1120.48,268.91,1120.64,268.88z"/>
			</g>
		</g>
		<g>
			<g>
				<path class="st0" d="M264.69,280.07c-8.53-5.47-18.77-7.29-28.88-5.12c-10.36,2.23-19.19,8.35-24.9,17.33l-82.15,130.85
					l-36.25-150.3c-2.55-10.29-8.94-18.91-17.99-24.29c-8.72-5.18-18.85-6.68-28.6-4.26c-10.1,2.19-19,8.45-24.47,17.24
					c-5.55,8.9-7.22,19.77-4.67,29.46l57.65,240.55c0.35,1.47,0.89,2.88,1.6,4.2c0.51,1.81,1.29,3.51,2.32,5.06
					c0.03,0.05,0.05,0.09,0.08,0.14c0.93,2.66,2.51,5.11,4.64,7.09l0.9,0.81c1,1.18,2.14,2.22,3.39,3.1
					c0.99,0.95,2.03,1.9,3.26,2.79c0.08,0.05,0.15,0.11,0.23,0.16c1.57,1.21,3.36,2.17,5.32,2.81c1.31,0.71,2.7,1.25,4.14,1.61
					c2.43,0.86,4.61,1.21,5.96,1.43c1.29,0.21,3.27,0.53,5.85,0.52c1.48,0.14,2.97,0.09,4.44-0.14l0.29-0.05
					c1.77,0.01,3.54-0.26,5.24-0.77c2.32-0.55,4.2-1.41,5.51-2.06c1.43-0.47,2.79-1.13,4.05-1.95c0.7-0.37,1.91-1.02,3.37-2.06
					c1.22-0.88,2.15-1.72,2.96-2.59c1.72-1.14,3.24-2.58,4.48-4.27c1.25-1.5,2.1-2.92,2.68-3.9c0.06-0.09,0.12-0.19,0.18-0.28
					l132.12-209.76c5.35-8.74,6.98-19.56,4.47-29.68C279.46,293.72,273.34,285.33,264.69,280.07z M94.75,556.82
					c-0.15-0.1-0.31-0.21-0.46-0.32C94.45,556.61,94.6,556.71,94.75,556.82C94.76,556.82,94.76,556.82,94.75,556.82z"/>
				<path class="st1" d="M55.11,243.16c6.75,0,13.43,1.82,19.43,5.39c9.05,5.37,15.44,14,17.99,24.29l36.25,150.3l82.15-130.85
					c5.71-8.98,14.54-15.1,24.9-17.33c2.78-0.6,5.57-0.89,8.34-0.89c7.27,0,14.35,2.05,20.54,6.01
					c8.65,5.26,14.77,13.65,17.24,23.65c2.51,10.12,0.88,20.94-4.47,29.68L145.34,543.16c-0.06,0.09-0.12,0.19-0.18,0.28
					c-0.58,0.99-1.42,2.4-2.68,3.9c-1.24,1.69-2.76,3.13-4.48,4.27c-0.81,0.87-1.74,1.7-2.96,2.59c-1.46,1.04-2.67,1.69-3.37,2.06
					c-1.26,0.82-2.62,1.47-4.05,1.95c-1.31,0.66-3.19,1.52-5.51,2.06c-1.67,0.51-3.41,0.77-5.16,0.77c-0.03,0-0.05,0-0.08,0
					l-0.29,0.05c-0.92,0.15-1.85,0.22-2.78,0.22c-0.56,0-1.11-0.03-1.66-0.08c-0.06,0-0.11,0-0.17,0c-2.5,0-4.41-0.31-5.68-0.52
					c-1.36-0.22-3.53-0.58-5.96-1.43c-1.44-0.36-2.84-0.9-4.14-1.61c-1.96-0.63-3.75-1.59-5.32-2.81c-0.08-0.05-0.15-0.11-0.23-0.16
					c-1.23-0.88-2.27-1.84-3.26-2.79c-1.25-0.87-2.4-1.91-3.39-3.1l-0.9-0.81c-2.13-1.98-3.71-4.42-4.64-7.09
					c-0.03-0.05-0.05-0.09-0.08-0.14c-1.02-1.55-1.81-3.26-2.32-5.06c-0.71-1.32-1.25-2.73-1.6-4.2L16.79,290.98
					c-2.54-9.69-0.87-20.55,4.67-29.46c5.47-8.79,14.37-15.05,24.47-17.24C48.97,243.53,52.05,243.16,55.11,243.16 M94.59,556.71
					c0.05,0.04,0.11,0.07,0.16,0.11c0,0,0.01,0,0.01,0C94.71,556.78,94.65,556.74,94.59,556.71c-0.1-0.07-0.2-0.14-0.3-0.21
					C94.39,556.57,94.49,556.64,94.59,556.71 M55.11,227.53c-4.26,0-8.54,0.52-12.71,1.54c-14.1,3.13-26.55,11.93-34.19,24.2
					c-7.77,12.48-10.16,27.6-6.57,41.5l57.62,240.4c0.52,2.19,1.28,4.34,2.25,6.4c0.74,2.2,1.7,4.31,2.88,6.32
					c1.83,4.38,4.59,8.35,8.07,11.58c0.06,0.05,0.11,0.1,0.17,0.16l0.22,0.2c1.37,1.51,2.87,2.88,4.5,4.11
					c1.11,1.04,2.5,2.25,4.16,3.44l0.09,0.06c2.58,1.95,5.41,3.5,8.43,4.62c1.86,0.91,3.8,1.64,5.8,2.18
					c3.44,1.15,6.35,1.62,7.96,1.88c1.48,0.24,4.18,0.68,7.71,0.72c0.77,0.05,1.55,0.08,2.32,0.08c1.48,0,2.97-0.1,4.45-0.3
					c2.72-0.11,5.35-0.54,7.91-1.27c2.51-0.63,4.98-1.52,7.52-2.73c2.04-0.76,4-1.72,5.85-2.86c1.18-0.64,2.79-1.57,4.61-2.87
					c1.49-1.08,2.8-2.17,4-3.32c2.52-1.87,4.75-4.08,6.65-6.59c1.81-2.22,3.03-4.25,3.71-5.39c0.03-0.05,0.07-0.1,0.08-0.12
					l132.12-209.76c0.04-0.06,0.07-0.12,0.11-0.18c7.51-12.28,9.81-27.44,6.31-41.59c-3.45-13.96-12.02-25.73-24.13-33.15
					c-8.62-5.49-18.58-8.38-28.82-8.38c-3.88,0-7.78,0.42-11.62,1.24c-14.49,3.11-26.85,11.71-34.8,24.21l-62.47,99.51
					l-27.55-114.24c-3.58-14.47-12.52-26.53-25.2-34.06C74.16,230.15,64.68,227.53,55.11,227.53L55.11,227.53z"/>
			</g>
			<g>
				<path class="st0" d="M342.62,247.95c-21.9,0-39.06,17.16-39.06,39.06v230.44c0,21.9,17.16,39.06,39.06,39.06
					c21.75,0,39.45-17.52,39.45-39.06V287.01C382.06,265.47,364.37,247.95,342.62,247.95z"/>
				<path class="st1" d="M342.62,247.95c21.75,0,39.45,17.52,39.45,39.06v230.44c0,21.54-17.7,39.06-39.45,39.06
					c-21.9,0-39.06-17.16-39.06-39.06V287.01C303.56,265.11,320.71,247.95,342.62,247.95 M342.62,232.33
					c-30.66,0-54.68,24.02-54.68,54.68v230.44c0,30.66,24.02,54.68,54.68,54.68c30.37,0,55.07-24.53,55.07-54.68V287.01
					C397.69,256.86,372.98,232.33,342.62,232.33L342.62,232.33z"/>
			</g>
			<g>
				<path class="st0" d="M492.32,246.71l-45.81,5.04c-21.77,2.4-36.95,21.33-34.55,43.1l25.22,229.06
					c2.36,21.41,21.69,36.91,43.1,34.55l45.81-5.04c84.35-9.29,145.37-85.81,136.04-170.59
					C652.84,298.48,576.66,237.42,492.32,246.71z M517.5,475.38l-6.6,0.73l-16.59-150.64l6.6-0.73
					c41.32-4.55,78.63,25.36,83.18,66.68C588.73,433.55,559.42,470.44,517.5,475.38z"/>
				<path class="st1" d="M509.28,245.77c77.37,0,144.19,58.41,152.85,137.06c9.34,84.77-51.69,161.3-136.04,170.59l-45.81,5.04
					c-1.45,0.16-2.88,0.24-4.3,0.24c-19.64,0-36.6-14.83-38.79-34.79l-25.22-229.06c-2.4-21.77,12.78-40.7,34.55-43.1l45.81-5.04
					C498.02,246.08,503.67,245.77,509.28,245.77 M510.9,476.11l6.6-0.73c41.92-4.94,71.23-41.83,66.59-83.96
					c-4.24-38.53-36.97-67.14-74.88-67.14c-2.74,0-5.52,0.15-8.31,0.46l-6.6,0.73L510.9,476.11 M509.28,230.15
					c-6.2,0-12.48,0.35-18.67,1.03l-45.81,5.04c-14.68,1.62-27.75,8.73-36.82,20.04c-9.06,11.31-13.17,25.62-11.55,40.3
					l25.22,229.06c3.06,27.76,26.41,48.7,54.32,48.7c2,0,4.02-0.11,6.01-0.33l45.81-5.04c44.96-4.95,85.32-27.24,113.65-62.78
					c28.32-35.51,41.17-79.92,36.2-125.05C668.18,295.05,595.79,230.15,509.28,230.15L509.28,230.15z M524.64,458.15l-13.02-118.19
					c29.42,1.16,53.69,23.63,56.94,53.18C571.91,423.53,553.08,450.49,524.64,458.15L524.64,458.15z"/>
			</g>
			<g>
				<path class="st0" d="M871.34,338.04c20.88,3.49,41.5-11.38,45.02-32.47c3.55-21.24-10.85-41.41-32.09-44.96l-125.98-21.04
					c-21.6-3.61-41.35,10.49-44.96,32.09l-37.96,227.3c-3.55,21.24,10.85,41.41,32.09,44.96c0.19,0.03,0.38,0.06,0.57,0.09
					c0.19,0.04,0.39,0.07,0.59,0.11l124.82,20.84c20.88,3.49,41.47-11.21,44.96-32.09c3.52-21.09-11.15-41.85-32.03-45.34
					l-87.07-14.54l6.05-36.22l72.43,12.09c21.24,3.55,41.44-11.02,45.02-32.48c3.49-20.88-11.21-41.47-32.09-44.96l-72.43-12.09
					l5.98-35.83L871.34,338.04z"/>
				<path class="st1" d="M751.56,239c2.21,0,4.46,0.18,6.73,0.56l125.98,21.04c21.24,3.55,35.64,23.72,32.09,44.96
					c-3.18,19.02-20.26,32.98-38.9,32.98c-2.03,0-4.08-0.17-6.13-0.51l-87.07-14.54l-5.98,35.83l72.43,12.09
					c20.88,3.49,35.58,24.08,32.09,44.96c-3.22,19.29-19.87,33.01-38.63,33.01c-2.11,0-4.25-0.17-6.39-0.53l-72.43-12.09
					l-6.05,36.22l87.07,14.54c20.88,3.49,35.55,24.25,32.03,45.34c-3.14,18.81-20.16,32.61-38.77,32.61c-2.05,0-4.11-0.17-6.18-0.51
					l-124.82-20.84c-0.2-0.03-0.39-0.07-0.59-0.11c-0.19-0.03-0.38-0.05-0.57-0.09c-21.24-3.55-35.64-23.72-32.09-44.96l37.96-227.3
					C716.57,252.33,732.72,239,751.56,239 M751.56,223.38C751.56,223.38,751.56,223.38,751.56,223.38
					c-26.66,0-49.21,19.22-53.64,45.71l-37.96,227.3c-4.97,29.74,15.19,57.98,44.93,62.94c0.19,0.03,0.38,0.06,0.57,0.09
					c0.2,0.04,0.39,0.07,0.59,0.1l124.82,20.84c2.88,0.48,5.83,0.73,8.76,0.73c26.54,0,49.84-19.63,54.18-45.66
					c2.39-14.29-0.99-28.8-9.51-40.86c-8.55-12.11-21.11-20.09-35.35-22.46l-71.66-11.97l0.9-5.4l57.02,9.52
					c2.96,0.49,5.98,0.75,8.97,0.75c26.86,0,49.58-19.37,54.04-46.06c2.37-14.22-1.04-28.65-9.6-40.65
					c-8.57-12-21.11-19.91-35.33-22.29l-57.02-9.52l0.84-5.01l71.66,11.97c2.87,0.48,5.79,0.72,8.7,0.72
					c26.58,0,49.92-19.79,54.3-46.03c2.4-14.39-0.95-28.87-9.44-40.77c-8.49-11.9-21.09-19.77-35.48-22.18l-125.98-21.04
					C757.78,223.64,754.65,223.38,751.56,223.38L751.56,223.38L751.56,223.38z"/>
			</g>
		</g>
	</g>
</g>
</svg>
